<svg width="52" height="52" viewBox="0 0 52 52" fill="none" xmlns="http://www.w3.org/2000/svg">
  <ellipse cx="26" cy="47.6667" rx="13" ry="2.16667" fill="#1B1B1B" fill-opacity="0.16"/>
  <path d="M26.1667 45.3333L25.7956 45.6685L26.1667 46.0793L26.5377 45.6685L26.1667 45.3333ZM26.1667 45.3333C26.5377 45.6685 26.5378 45.6683 26.538 45.6682L26.5386 45.6675L26.5409 45.6649L26.5496 45.6553L26.583 45.6179C26.598 45.6012 26.6166 45.5804 26.6386 45.5555C26.6598 45.5317 26.6842 45.5041 26.7117 45.473C26.8241 45.3458 26.9884 45.1583 27.1972 44.916C27.6147 44.4313 28.2103 43.7272 28.9247 42.847C30.353 41.0871 32.2582 38.6206 34.1645 35.7953C36.0698 32.9714 37.9822 29.78 39.4198 26.571C40.8546 23.3685 41.8333 20.1116 41.8333 17.1667C41.8333 8.50552 34.8278 1.5 26.1667 1.5C17.5055 1.5 10.5 8.50552 10.5 17.1667C10.5 20.1116 11.4788 23.3685 12.9135 26.571C14.3511 29.78 16.2636 32.9714 18.1689 35.7953C20.0751 38.6206 21.9803 41.0871 23.4086 42.847C24.123 43.7272 24.7186 44.4313 25.1362 44.916C25.3449 45.1583 25.5092 45.3458 25.6216 45.473C25.6778 45.5366 25.721 45.5851 25.7503 45.6179L25.7837 45.6553L25.7924 45.6649L25.7947 45.6675L25.7953 45.6682C25.7955 45.6683 25.7956 45.6685 26.1667 45.3333ZM26.1667 22.0833C24.8627 22.0833 23.6121 21.5653 22.6901 20.6433C21.768 19.7212 21.25 18.4706 21.25 17.1667C21.25 15.8627 21.768 14.6121 22.6901 13.6901C23.6121 12.768 24.8627 12.25 26.1667 12.25C27.4706 12.25 28.7212 12.768 29.6433 13.6901C30.5653 14.6121 31.0833 15.8627 31.0833 17.1667C31.0833 18.4706 30.5653 19.7212 29.6433 20.6433C28.7212 21.5653 27.4706 22.0833 26.1667 22.0833Z" fill="white" stroke="#193A14"/>
  <rect x="13" y="4.3335" width="26" height="26" rx="13" fill="#FFA500"/>
</svg>
