<svg width="52" height="52" viewBox="0 0 52 52" fill="none" xmlns="http://www.w3.org/2000/svg">
<ellipse cx="26" cy="47.6667" rx="13" ry="2.16667" fill="#1B1B1B" fill-opacity="0.16"/>
<path d="M26.0002 45.4998L25.6291 45.835L26.0002 46.2458L26.3712 45.835L26.0002 45.4998ZM26.0002 45.4998C26.3712 45.835 26.3713 45.8349 26.3715 45.8347L26.3721 45.834L26.3744 45.8314L26.3831 45.8218L26.4165 45.7845C26.4315 45.7677 26.4501 45.7469 26.4721 45.722C26.4933 45.6982 26.5177 45.6706 26.5452 45.6395C26.6576 45.5123 26.8219 45.3248 27.0307 45.0825C27.4482 44.5978 28.0438 43.8937 28.7582 43.0135C30.1865 41.2536 32.0917 38.7871 33.998 35.9618C35.9033 33.1379 37.8157 29.9465 39.2533 26.7375C40.688 23.535 41.6668 20.2781 41.6668 17.3332C41.6668 8.67203 34.6613 1.6665 26.0002 1.6665C17.339 1.6665 10.3335 8.67203 10.3335 17.3332C10.3335 20.2781 11.3123 23.535 12.747 26.7375C14.1846 29.9465 16.0971 33.1379 18.0023 35.9618C19.9086 38.7871 21.8138 41.2536 23.2421 43.0135C23.9565 43.8937 24.5521 44.5978 24.9697 45.0825C25.1784 45.3248 25.3427 45.5123 25.4551 45.6395C25.5113 45.7031 25.5545 45.7516 25.5838 45.7845L25.6172 45.8218L25.6259 45.8314L25.6282 45.834L25.6288 45.8347C25.629 45.8349 25.6291 45.835 26.0002 45.4998ZM26.0002 22.2498C24.6962 22.2498 23.4456 21.7318 22.5236 20.8098C21.6015 19.8877 21.0835 18.6371 21.0835 17.3332C21.0835 16.0292 21.6015 14.7786 22.5236 13.8566C23.4456 12.9345 24.6962 12.4165 26.0002 12.4165C27.3041 12.4165 28.5547 12.9345 29.4768 13.8566C30.3988 14.7786 30.9168 16.0292 30.9168 17.3332C30.9168 18.6371 30.3988 19.8877 29.4768 20.8098C28.5547 21.7318 27.3041 22.2498 26.0002 22.2498Z" fill="white" stroke="#193A14"/>
<g clip-path="url(#clip0_6792_3304)">
<path d="M39 17.3335C39 24.5131 33.1796 30.3335 26 30.3335C18.8204 30.3335 13 24.5131 13 17.3335C13 10.1539 18.8204 4.3335 26 4.3335C33.1796 4.3335 39 10.1539 39 17.3335Z" fill="#CEE1BF"/>
<path d="M35.0999 17.3334C35.0999 22.3591 31.0256 26.4334 25.9999 26.4334C20.9742 26.4334 16.8999 22.3591 16.8999 17.3334C16.8999 12.3077 20.9742 8.2334 25.9999 8.2334C31.0256 8.2334 35.0999 12.3077 35.0999 17.3334Z" fill="#5D9B2A"/>
<path d="M36.3963 10.6952C36.351 9.72369 35.8899 8.83283 34.7963 8.88553C34.0797 8.92011 33.5086 9.47668 33.5442 10.2259C33.5653 10.6919 33.7998 11.0048 34.0263 11.1563C34.125 13.2558 33.2223 15.2203 31.7761 16.9954C30.6178 18.3342 29.2201 19.5609 27.79 20.656C26.7029 21.4497 25.5592 22.1775 24.4284 22.828L23.5904 23.3005C26.4036 19.3518 26.381 14.2685 28.1993 11.018C28.6539 10.3017 29.1958 9.70887 29.8769 9.29555L29.7717 9.11936C25.3052 10.8599 18.2002 11.316 18.2002 15.189C18.2002 16.6035 19.2986 17.3231 20.6041 17.3231C22.5049 17.3231 23.296 15.7769 23.296 14.0363H23.0388C23.0388 15.408 22.4208 16.9312 20.9891 16.9312C19.9619 16.9312 19.5575 16.1688 19.5575 15.2549C19.5575 11.6931 26.1836 10.6886 28.2252 9.81919C24.0563 13.2196 23.7748 17.305 22.8608 20.8783C22.4063 22.3208 21.8611 23.7205 21.0506 24.9818L21.0636 24.9917C21.0522 25.0065 21.0425 25.0213 21.0312 25.0361C21.0312 25.0361 21.0538 25.0279 21.0911 25.0131L21.2431 25.1333C24.2472 23.3335 32.174 18.8595 35.1894 14.1829C35.987 12.9726 36.448 11.7787 36.3963 10.6952Z" fill="#121212"/>
</g>
<defs>
<clipPath id="clip0_6792_3304">
<rect width="26" height="26" fill="white" transform="translate(13 4.3335)"/>
</clipPath>
</defs>
</svg>
