<svg xmlns="http://www.w3.org/2000/svg" fill="none" viewBox="0 0 170 41"><path fill="#E03C31" d="m39.25 27.075-2.046-2.049 2.046-2.045a4.16 4.16 0 0 0 0-5.875l-7.19-7.19V6.517c0-1.164-.854-2.157-1.986-2.306a2.29 2.29 0 0 0-2.386 1.331l-4.355-4.336a4.035 4.035 0 0 0-5.695.002L1.716 17.106a4.16 4.16 0 0 0 0 5.875l2.051 2.05-2.05 2.046a4.155 4.155 0 0 0 0 5.875l5.796 5.796c.737.738 1.707 1.215 2.747 1.276a4.127 4.127 0 0 0 3.195-1.21l5.761-5.746a1.815 1.815 0 0 1 2.567.003l5.733 5.743a4.137 4.137 0 0 0 3.195 1.21c1.04-.063 2.01-.54 2.748-1.276l5.796-5.796a4.168 4.168 0 0 0-.005-5.877ZM3.487 21.21a1.65 1.65 0 0 1 0-2.334L19.199 3.162c.71-.71 1.856-.71 2.566 0l15.712 15.714c.644.644.644 1.69 0 2.334l-2.046 2.046L23.36 11.17a4.034 4.034 0 0 0-5.7-.005L5.536 23.264l-2.05-2.054Zm30.176 3.814-2.005 2.005a1.724 1.724 0 0 1-1.101.52c-.48.03-.937-.143-1.273-.48l-5.95-5.942a4.033 4.033 0 0 0-5.699 0l-5.95 5.943a1.64 1.64 0 0 1-1.167.482 1.64 1.64 0 0 1-1.167-.482l-2.043-2.044L19.22 13.12a1.813 1.813 0 0 1 2.567.003l11.875 11.9Zm3.817 6.155L31.658 37a1.725 1.725 0 0 1-1.101.52c-.48.03-.937-.144-1.273-.48l-5.953-5.94a4.03 4.03 0 0 0-5.696 0l-5.953 5.94c-.335.336-.793.51-1.273.48a1.725 1.725 0 0 1-1.1-.52l-5.822-5.822a1.65 1.65 0 0 1 0-2.334l2.048-2.048 1.978 1.977c.737.738 1.707 1.215 2.747 1.276a4.127 4.127 0 0 0 3.195-1.21l5.759-5.75a1.815 1.815 0 0 1 2.566.002l5.733 5.748a4.136 4.136 0 0 0 3.195 1.21c1.04-.063 2.01-.54 2.748-1.276l1.98-1.98 2.046 2.051a1.658 1.658 0 0 1-.002 2.334Z"/><path fill="#0E2638" d="M63.656 29.767h-1.71a.126.126 0 0 0-.119.084l-1.033 2.94c-.182.517-.487 1.386-.654 2.03a.128.128 0 0 1-.124.096.126.126 0 0 1-.123-.096c-.175-.646-.495-1.515-.687-2.038l-1.071-2.935a.129.129 0 0 0-.119-.083h-1.712a.13.13 0 0 0-.13.128c0 .018.003.033.01.048l2.835 7.133-1.11 2.773c-.004.015-.01.03-.01.048 0 .07.059.129.13.129h1.659a.127.127 0 0 0 .119-.08L63.78 29.94a.144.144 0 0 0 .007-.045.135.135 0 0 0-.131-.129ZM50.257 31a.131.131 0 0 1-.116.073.13.13 0 0 1-.129-.129c0-.129.137-1.088.137-3.505v-.746a.13.13 0 0 0-.13-.128h-1.633a.13.13 0 0 0-.13.128V36.95c0 .07.059.129.13.129h1.5a.13.13 0 0 0 .129-.129v-1.046a.13.13 0 0 1 .247-.053c.152.309.798 1.374 2.384 1.374 1.885 0 3.428-1.644 3.428-3.806s-1.543-3.806-3.428-3.806c-1.325.005-2.078.773-2.389 1.387Zm3.925 2.424c0 1.132-.894 2.049-1.998 2.049-1.103 0-1.998-.917-1.998-2.049 0-1.131.895-2.048 1.998-2.048 1.104-.003 1.998.917 1.998 2.048Zm76.288-.48a.13.13 0 0 1-.129-.128V31.3a.13.13 0 0 1 .129-.129h4.425c.303 0 .5.248.51.49 0 0 .01.253.003.513-.086 3-1.925 5.102-4.885 5.102-3.005 0-5.185-2.405-5.185-5.408 0-3.005 2.23-5.47 5.233-5.47 2.359 0 3.602 1.482 3.672 1.543a.127.127 0 0 1 .005.18l-1.123 1.191a.128.128 0 0 1-.18.005c-.06-.063-.917-1.06-2.371-1.06-1.96 0-3.312 1.651-3.312 3.611 0 1.96 1.362 3.564 3.279 3.564 1.528 0 2.619-.81 2.882-2.142.007-.043.012-.07.012-.093a.254.254 0 0 0-.255-.255h-2.71v.002Zm8.595 4.254c-1.432 0-2.505-1.048-2.505-2.923v-4.38a.13.13 0 0 1 .128-.128h1.634a.13.13 0 0 1 .129.129v3.92c0 1.144.508 1.694 1.44 1.694.891 0 1.503-.593 1.503-1.694v-3.92a.13.13 0 0 1 .129-.129h1.634a.13.13 0 0 1 .128.129v7.054a.13.13 0 0 1-.128.129h-1.501a.13.13 0 0 1-.128-.129v-1.3a.13.13 0 0 0-.129-.13c-.071 0-.114.043-.132.112-.179.61-.732 1.566-2.202 1.566Zm-54.572-7.613a3.837 3.837 0 0 0-3.837 3.84 3.836 3.836 0 1 0 7.673 0 3.837 3.837 0 0 0-3.836-3.84Zm0 5.887c-1.104 0-1.998-.916-1.998-2.048 0-1.131.894-2.048 1.998-2.048s1.998.917 1.998 2.048c0 1.132-.894 2.048-1.998 2.048Zm-5.341-4.071c-.46 0-.922.227-1.182.763-.182.374-.243.894-.243 1.591l.003 3.192a.13.13 0 0 1-.13.13h-1.633a.13.13 0 0 1-.13-.13v-7.054a.13.13 0 0 1 .13-.128h1.5a.13.13 0 0 1 .129.128v1.301c0 .07.058.129.129.129.07 0 .11-.048.13-.116.13-.442.332-.98.746-1.324.227-.187.513-.273.798-.273.24 0 .498.059.763.228a.12.12 0 0 1 .055.106v1.599a.13.13 0 0 1-.128.128.138.138 0 0 1-.071-.022 1.699 1.699 0 0 0-.866-.248Zm31.113 0c-.46 0-.922.227-1.182.763-.182.374-.243.894-.243 1.591l.003 3.192a.13.13 0 0 1-.129.13h-1.634a.13.13 0 0 1-.129-.13v-7.054a.13.13 0 0 1 .129-.128h1.5a.13.13 0 0 1 .129.128v1.301c0 .07.058.129.129.129.071 0 .111-.048.131-.116.129-.442.331-.98.745-1.324a1.25 1.25 0 0 1 .798-.273c.24 0 .498.059.763.228.035.022.056.06.056.106v1.599a.13.13 0 0 1-.129.128.14.14 0 0 1-.071-.022c-.22-.127-.5-.248-.866-.248Zm37.953 0c-.46 0-.922.227-1.182.763-.182.374-.243.894-.243 1.591l.003 3.192a.13.13 0 0 1-.129.13h-1.634a.13.13 0 0 1-.129-.13v-7.054a.13.13 0 0 1 .129-.128h1.5a.13.13 0 0 1 .129.128v1.301c0 .07.058.129.129.129.071 0 .111-.048.131-.116.129-.442.331-.98.745-1.324a1.25 1.25 0 0 1 .798-.273c.24 0 .498.059.763.228a.12.12 0 0 1 .056.106v1.599a.13.13 0 0 1-.129.128.14.14 0 0 1-.071-.022 1.689 1.689 0 0 0-.866-.248Zm4.584 5.797c-1.432 0-2.505-1.048-2.505-2.923v-4.38a.13.13 0 0 1 .129-.128h1.634a.13.13 0 0 1 .129.129v3.92c0 1.144.507 1.694 1.439 1.694.892 0 1.503-.593 1.503-1.694v-3.92a.13.13 0 0 1 .129-.129h1.634a.13.13 0 0 1 .129.129v7.054a.13.13 0 0 1-.129.129h-1.5a.13.13 0 0 1-.129-.129v-1.3a.13.13 0 0 0-.129-.13c-.071 0-.114.043-.131.112-.177.61-.733 1.566-2.203 1.566Zm-28.586-7.431h-1.709a.126.126 0 0 0-.119.083l-1.033 2.94c-.182.518-.488 1.387-.654 2.03a.13.13 0 0 1-.124.097.126.126 0 0 1-.124-.096c-.174-.647-.495-1.515-.687-2.038l-1.071-2.935a.127.127 0 0 0-.118-.083h-1.713a.13.13 0 0 0-.129.128.11.11 0 0 0 .01.048l2.834 7.133-1.109 2.773a.149.149 0 0 0-.01.048c0 .07.058.129.129.129h1.66a.125.125 0 0 0 .118-.081l3.973-10.002a.145.145 0 0 0 .008-.045.135.135 0 0 0-.132-.129Zm-53.271-3.202h-3.263a.51.51 0 0 0-.51.51v9.875c0 .07.058.129.129.129h1.631a.13.13 0 0 0 .13-.129v-2.455c0-.141.113-.255.254-.255h1.63c2.184 0 3.901-1.717 3.901-3.839.003-2.119-1.717-3.836-3.902-3.836Zm-.164 5.953h-1.465a.254.254 0 0 1-.255-.255v-3.718c0-.142.114-.255.255-.255h1.465c1.233 0 2.18.947 2.18 2.114 0 1.166-.947 2.114-2.18 2.114Zm43.452-1.003a.13.13 0 0 1 .128-.129h1.513a.13.13 0 0 0 .129-.129v-1.364a.13.13 0 0 0-.129-.128h-1.687a.13.13 0 0 1-.129-.13v-1.697a.13.13 0 0 0-.129-.128h-1.459a.13.13 0 0 0-.129.129v6.917c0 1.783.866 2.4 1.998 2.4.719 0 1.146-.22 1.326-.306a.136.136 0 0 0 .083-.134l-.003-1.106c0-.086-.08-.157-.186-.119-.23.086-.425.142-.66.142-.338 0-.671-.16-.671-.783v-3.435h.005ZM93.876 37.23c1.884 0 3.427-1.644 3.427-3.806s-1.543-3.806-3.427-3.806c-1.586 0-2.233 1.066-2.384 1.374a.126.126 0 0 1-.119.076.13.13 0 0 1-.129-.129v-1.046a.13.13 0 0 0-.129-.128h-1.5a.13.13 0 0 0-.129.128v10.002c0 .07.058.129.13.129h1.633a.13.13 0 0 0 .129-.129v-.49c0-2.417-.136-3.377-.136-3.506a.13.13 0 0 1 .129-.128c.07 0 .106.053.116.073.31.616 1.066 1.386 2.389 1.386Zm-.462-1.758c-1.104 0-1.998-.916-1.998-2.048 0-1.131.894-2.048 1.998-2.048 1.103 0 1.998.917 1.998 2.048 0 1.132-.895 2.048-1.998 2.048Zm8.615-5.887c-2.12 0-3.68 1.718-3.68 3.837s1.619 3.836 3.821 3.836c1.192 0 2.104-.417 2.713-.904a.13.13 0 0 0 .025-.177l-.677-.937a.126.126 0 0 0-.179-.028c-.301.195-.74.543-1.741.543a2.135 2.135 0 0 1-1.947-1.268c-.033-.073-.083-.181-.083-.23a.13.13 0 0 1 .129-.128h4.695a.516.516 0 0 0 .52-.5c.119-2.256-1.139-4.044-3.596-4.044Zm1.619 3.246h-3.294a.13.13 0 0 1-.129-.13c0-.03.031-.138.058-.226.268-.831.942-1.319 1.842-1.319.76 0 1.328.379 1.624.96.083.167.154.381.154.455 0 .146-.117.26-.255.26ZM68.614 3.245h-4.612a.813.813 0 0 0-.813.813v15.109c0 .45.363.813.813.813h4.612c4.13 0 7.476-3.746 7.476-8.368s-3.347-8.367-7.476-8.367Zm-.68 13.99h-1.333a.406.406 0 0 1-.407-.407V6.397c0-.225.182-.407.407-.407h1.333c2.773 0 5.024 2.518 5.024 5.622s-2.248 5.623-5.024 5.623Zm38.357-9.181a6.11 6.11 0 1 0 0 12.218 6.11 6.11 0 0 0 0-12.218Zm0 9.37c-1.758 0-3.182-1.46-3.182-3.26 0-1.801 1.424-3.261 3.182-3.261s3.183 1.46 3.183 3.26c0 1.801-1.425 3.261-3.183 3.261Zm-8.504-6.478c-.732 0-1.465.36-1.882 1.212-.29.594-.386 1.425-.386 2.536l.005 5.082c0 .11-.09.201-.202.201h-2.601a.203.203 0 0 1-.202-.201V8.549c0-.111.09-.202.202-.202h2.386c.112 0 .202.09.202.202v2.07c0 .112.091.203.203.203.11 0 .179-.078.21-.187.204-.705.524-1.56 1.186-2.109a1.98 1.98 0 0 1 1.27-.432c.382 0 .794.094 1.213.361a.197.197 0 0 1 .088.17v2.543c0 .111-.09.202-.202.202a.216.216 0 0 1-.113-.035c-.346-.197-.793-.39-1.377-.39Zm49.528 0c-.732 0-1.464.36-1.881 1.212-.291.594-.387 1.425-.387 2.536l.005 5.082a.203.203 0 0 1-.202.201h-2.601a.203.203 0 0 1-.202-.201V8.549c0-.111.091-.202.202-.202h2.387c.111 0 .202.09.202.202v2.07c0 .112.091.203.202.203.111 0 .179-.078.209-.187.205-.705.526-1.56 1.187-2.109a1.983 1.983 0 0 1 1.271-.432c.381 0 .793.094 1.212.361a.197.197 0 0 1 .089.17v2.543a.203.203 0 0 1-.202.202.217.217 0 0 1-.114-.035c-.346-.197-.793-.39-1.377-.39Zm22.206-2.602h-2.722a.205.205 0 0 0-.192.134s-1.089 3.102-1.644 4.678c-.288.823-.778 2.204-1.044 3.232a.205.205 0 0 1-.396.003c-.278-1.028-.788-2.412-1.091-3.245l-1.705-4.67a.2.2 0 0 0-.189-.132h-2.726a.203.203 0 0 0-.186.28l4.51 11.353-1.768 4.415a.203.203 0 0 0 .187.278h2.64a.204.204 0 0 0 .189-.129l6.324-15.919a.2.2 0 0 0-.187-.278Zm-15.889 2.781c0-.111.091-.202.203-.202h2.409a.203.203 0 0 0 .202-.202V8.55a.203.203 0 0 0-.202-.202h-2.687a.203.203 0 0 1-.202-.202V5.44a.203.203 0 0 0-.202-.202h-2.324a.203.203 0 0 0-.202.202v11.01c0 2.838 1.382 3.82 3.182 3.82 1.144 0 1.826-.348 2.109-.485a.218.218 0 0 0 .132-.212l-.005-1.763c0-.138-.129-.25-.296-.186-.366.136-.674.224-1.048.224-.538 0-1.069-.252-1.069-1.245v-5.478Zm-32.407 9.095c2.998 0 5.455-2.617 5.455-6.06 0-3.44-2.457-6.058-5.455-6.058-2.523 0-3.554 1.697-3.794 2.187a.203.203 0 0 1-.189.121.203.203 0 0 1-.202-.202V8.544a.203.203 0 0 0-.202-.202h-2.387a.203.203 0 0 0-.202.202v15.92c0 .11.091.201.202.201h2.602c.111 0 .202-.09.202-.202v-.78c0-3.85-.218-5.378-.218-5.582a.203.203 0 0 1 .387-.086c.495.982 1.695 2.205 3.801 2.205Zm-.735-2.796c-1.758 0-3.182-1.46-3.182-3.26 0-1.801 1.424-3.261 3.182-3.261s3.182 1.46 3.182 3.26c0 1.801-1.424 3.261-3.182 3.261Zm13.717-9.37c-3.375 0-5.857 2.735-5.857 6.11 0 3.374 2.576 6.109 6.084 6.109 1.899 0 3.349-.662 4.319-1.44a.206.206 0 0 0 .04-.28l-1.078-1.49a.203.203 0 0 0-.283-.046c-.48.311-1.18.864-2.768.864-1.341 0-2.536-.783-3.099-2.018-.053-.118-.132-.288-.132-.366 0-.111.091-.202.203-.202h7.473c.326 0 .801-.222.828-.796.18-3.599-1.823-6.445-5.73-6.445Zm2.573 5.165h-5.243a.203.203 0 0 1-.202-.202c0-.05.048-.223.093-.361.427-1.321 1.498-2.1 2.933-2.1 1.21 0 2.114.604 2.583 1.529.134.265.245.606.245.725a.41.41 0 0 1-.409.409ZM85.214 20.22c2.998 0 5.456-2.617 5.456-6.06 0-3.44-2.458-6.058-5.456-6.058-2.523 0-3.553 1.697-3.793 2.187a.203.203 0 0 1-.19.121.203.203 0 0 1-.202-.202V8.544a.203.203 0 0 0-.202-.202H78.44a.203.203 0 0 0-.202.202v15.92c0 .11.091.201.202.201h2.602c.11 0 .202-.09.202-.202v-.78c0-3.85-.217-5.378-.217-5.582 0-.111.09-.202.202-.202.11 0 .169.086.184.116.495.982 1.695 2.205 3.801 2.205Zm-.735-2.796c-1.758 0-3.182-1.46-3.182-3.26 0-1.801 1.424-3.261 3.182-3.261s3.183 1.46 3.183 3.26c-.003 1.801-1.428 3.261-3.183 3.261ZM53.684 3.245h-4.612a.813.813 0 0 0-.813.813v15.109c0 .45.364.813.813.813h4.612c4.13 0 7.476-3.746 7.476-8.368s-3.347-8.367-7.476-8.367Zm-.677 13.99h-1.334a.406.406 0 0 1-.406-.407V6.397c0-.225.182-.407.406-.407h1.334c2.773 0 5.024 2.518 5.024 5.622-.003 3.104-2.25 5.623-5.024 5.623Z"/></svg>