<svg width="1152" height="320" viewBox="0 0 1152 320" fill="none" xmlns="http://www.w3.org/2000/svg">
<g clip-path="url(#clip0)">
<mask id="mask0" mask-type="alpha" maskUnits="userSpaceOnUse" x="-453" y="0" width="1617" height="320">
<rect x="-453" width="1617" height="320" fill="#DCDCDC"/>
</mask>
<g mask="url(#mask0)">
<path d="M0 0H1152V320H0V0Z" fill="#F2F2F2"/>
<path opacity="0.5" d="M923 241L972 268V385L923 357.794V241Z" fill="white"/>
<path opacity="0.8" d="M781 208L831 227.68V366L781 344.633V208Z" fill="white"/>
<path opacity="0.1" d="M804 319.848V198.358L841 160V326H804V319.848Z" fill="#A99CB1"/>
<path opacity="0.1" d="M744 367.811V245.589L781 207V374H744V367.811Z" fill="#A99CB1"/>
<path opacity="0.1" d="M893 401.811V262L923 241V408H893V401.811Z" fill="#A99CB1"/>
<path opacity="0.8" d="M841 160L913 194.96V321H841V160Z" fill="white"/>
<path opacity="0.4" d="M1269.44 202.6L1109.06 123.852L1190.39 173.51L776.025 -22.4869L792.79 -52.0709C792.79 -52.0709 859.27 15.2722 939.586 44.6339C939.586 44.6339 911.059 0.491893 934.353 12.5618C957.647 24.6316 1039.53 90.6477 1039.53 90.6477C1039.53 90.6477 1062.12 98.1675 1060.25 72.0376C1058.38 45.9076 1102.81 106.862 1159.33 129.841L1139.02 130.365L1269.44 202.6Z" fill="white"/>
<path opacity="0.4" d="M524.459 105.536L358.253 39.974L443.32 82.9143L14.5007 -79.0319L28.8256 -109.871C28.8256 -109.871 100.519 -48.1068 182.941 -25.3158C182.941 -25.3158 150.947 -67.0142 175.139 -56.8616C199.33 -46.709 286.266 12.491 286.266 12.491C286.266 12.491 309.391 18.165 305.422 -7.72925C301.453 -33.6235 350.647 23.5513 408.839 41.8978L388.633 44.0585L524.459 105.536Z" fill="white"/>
<path opacity="0.8" d="M658.164 358.655C658.164 358.655 1240.94 368.128 1077.02 257.467C913.102 146.806 74.1517 -170.242 200.042 -219.697C325.931 -269.152 894.337 -111.258 987.303 -144.048" stroke="white" stroke-miterlimit="10"/>
</g>
</g>
<defs>
<clipPath id="clip0">
<rect width="1152" height="320" fill="white"/>
</clipPath>
</defs>
</svg>
