<svg xmlns="http://www.w3.org/2000/svg" viewBox="0 0 64 50"><g fill="#E03C31"><path d="M52.093 2.538c.278-.501.9-.677 1.39-.393.49.285.662.921.384 1.422l-4.375 7.843a1.008 1.008 0 0 1-1.609.223l-.002.002-6.95-7.11-7.006 7.169a1.007 1.007 0 0 1-1.582-.171l-6.12-7.82c-.351-.45-.28-1.105.16-1.464a1.002 1.002 0 0 1 1.43.164l5.47 6.988 6.926-7.085a1.007 1.007 0 0 1 1.446 0l6.728 6.882 3.71-6.65Z"/><path d="M52.976 4.07H27.789l-5.611 6.86H52.94l.036-6.86ZM27.317 2H53.99v.004h.004A1.02 1.02 0 0 1 55 3.039l-.046 8.84A1.025 1.025 0 0 1 53.944 13H20.012v-.002a.995.995 0 0 1-.65-.24 1.05 1.05 0 0 1-.126-1.457l7.267-8.882c.185-.254.48-.419.814-.419Z"/><path d="M62.01 1.988h-7.02v11.024h7.02V1.988ZM54.535 0h7.932c.417 0 .799.171 1.078.447l.002.003.002.002.002.001c.278.28.45.662.45 1.08v11.934c0 .378-.14.726-.37.994a1.53 1.53 0 0 1-1.164.54L54.535 15a1.53 1.53 0 0 1-1.084-.45 1.528 1.528 0 0 1-.45-1.083V1.533c0-.42.172-.802.45-1.08l.004-.003c.277-.278.66-.45 1.08-.45ZM43.068 13.017h-6.136v29.966h6.136V13.017ZM35.966 11h8.068c.534 0 .966.451.966 1.008v31.984c0 .557-.432 1.008-.966 1.008h-8.068c-.534 0-.966-.451-.966-1.008V12.008c0-.557.432-1.008.966-1.008Z"/><path d="M51.01 44.875H29.99v2.25h21.02v-2.25ZM28.995 43h23.01c.55 0 .995.42.995.938v4.124c0 .518-.446.938-.995.938h-23.01c-.55 0-.995-.42-.995-.938v-4.124c0-.518.446-.938.995-.938ZM23.04 11.979c0-.54.43-.979.96-.979s.96.438.96.979v6.54l2.759 2.81a.992.992 0 0 1 0 1.384.948.948 0 0 1-1.359 0L24 20.31l-2.36 2.404a.948.948 0 0 1-1.359 0 .992.992 0 0 1 0-1.384l2.758-2.81v-6.54Z"/><path d="M30.827 24.066H19.173a.087.087 0 0 0-.062.022l-.004.004a.086.086 0 0 0-.023.062v3.692c0 .025.01.047.024.063h.001a.094.094 0 0 0 .064.025h11.654a.087.087 0 0 0 .062-.022l.004-.004a.086.086 0 0 0 .023-.062v-3.692a.087.087 0 0 0-.027-.062v-.004a.087.087 0 0 0-.062-.022ZM19.173 22h11.654c.595 0 1.138.243 1.533.634l.003-.002c.393.39.637.929.637 1.522v3.692a2.14 2.14 0 0 1-.637 1.518l-.003.002-.002.002c-.395.39-.937.632-1.53.632H19.172a2.172 2.172 0 0 1-1.532-.632l-.004-.004A2.134 2.134 0 0 1 17 27.846v-3.692c0-.589.244-1.126.637-1.518l.003-.002.002-.002c.395-.39.937-.632 1.53-.632ZM16 30v20H0v-2.059h14.016V30z"/><path d="M9 24v24H7V24zm-7-6v30H0V18z"/><path d="M8 28H1v-2h7zm7 7H1v-2h14zm0 7H1v-2h14zm9.003-22H26v3h-3v-3z"/></g></svg>