<svg xmlns="http://www.w3.org/2000/svg" viewBox="0 0 64 59"><g fill="#E03C31"><path d="M19.066 19.782c.43 0 .78.347.78.776v.902c0 .429-.35.776-.78.776a.778.778 0 0 1-.78-.776v-.902c0-.429.349-.776.78-.776Zm-3.772 0c.43 0 .78.347.78.776v.902c0 .429-.35.776-.78.776a.778.778 0 0 1-.78-.776v-.902c0-.429.349-.776.78-.776Zm3.772 3.687c.43 0 .78.347.78.776v.902c0 .43-.35.777-.78.777a.778.778 0 0 1-.78-.777v-.902c0-.43.349-.776.78-.776Zm-3.772 0c.43 0 .78.347.78.776v.902c0 .43-.35.777-.78.777a.778.778 0 0 1-.78-.777v-.902c0-.43.349-.776.78-.776Zm3.772 3.688c.43 0 .78.347.78.776v.902c0 .429-.35.776-.78.776a.778.778 0 0 1-.78-.776v-.902c0-.429.349-.776.78-.776Zm-3.772 0c.43 0 .78.347.78.776v.902c0 .429-.35.776-.78.776a.778.778 0 0 1-.78-.776v-.902c0-.429.349-.776.78-.776Zm3.772 3.769c.43 0 .78.347.78.776v.902c0 .43-.35.777-.78.777a.778.778 0 0 1-.78-.777v-.902c0-.429.349-.776.78-.776Zm-3.772 0c.43 0 .78.347.78.776v.902c0 .43-.35.777-.78.777a.778.778 0 0 1-.78-.777v-.902c0-.429.349-.776.78-.776Zm3.772 3.688c.43 0 .78.347.78.777v.901c0 .43-.35.776-.78.776a.778.778 0 0 1-.78-.776v-.901c0-.43.349-.777.78-.777Zm-3.772 0c.43 0 .78.347.78.777v.901c0 .43-.35.776-.78.776a.778.778 0 0 1-.78-.776v-.901c0-.43.349-.777.78-.777Zm20.268-9.327a.778.778 0 0 1-.78-.776v-1.642c0-.429.35-.776.78-.776.431 0 .78.347.78.776v1.642c0 .429-.349.776-.78.776Zm-3.282 0a.778.778 0 0 1-.78-.776v-1.642c0-.429.35-.776.78-.776.431 0 .78.347.78.776v1.642c0 .429-.349.776-.78.776Zm-3.281 0a.778.778 0 0 1-.78-.776v-1.642c0-.429.35-.776.78-.776.43 0 .78.347.78.776v1.642c0 .429-.35.776-.78.776Zm6.563 6.711a.778.778 0 0 1-.78-.776v-1.64c0-.43.35-.777.78-.777.431 0 .78.347.78.777v1.64c0 .43-.349.776-.78.776Zm-3.282 0a.778.778 0 0 1-.78-.776v-1.64c0-.43.35-.777.78-.777.431 0 .78.347.78.777v1.64c0 .43-.349.776-.78.776Zm-3.281 0a.778.778 0 0 1-.78-.776v-1.64c0-.43.35-.777.78-.777.43 0 .78.347.78.777v1.64c0 .43-.35.776-.78.776Zm6.563 6.712a.778.778 0 0 1-.78-.777v-1.641c0-.43.35-.776.78-.776.431 0 .78.347.78.776v1.641c0 .43-.349.776-.78.776Zm-3.282 0a.778.778 0 0 1-.78-.777v-1.641c0-.43.35-.776.78-.776.431 0 .78.347.78.776v1.641c0 .43-.349.776-.78.776Zm-3.281 0a.778.778 0 0 1-.78-.777v-1.641c0-.43.35-.776.78-.776.43 0 .78.347.78.776v1.641c0 .43-.35.776-.78.776Zm6.563 6.71a.778.778 0 0 1-.78-.776v-1.64c0-.43.35-.776.78-.776.431 0 .78.347.78.776v1.64c0 .43-.349.777-.78.777Zm-3.282 0a.778.778 0 0 1-.78-.776v-1.64c0-.43.35-.776.78-.776.431 0 .78.347.78.776v1.64c0 .43-.349.777-.78.777Zm-3.281 0a.778.778 0 0 1-.78-.776v-1.64c0-.43.35-.776.78-.776.43 0 .78.347.78.776v1.64c0 .43-.35.777-.78.777Zm6.563 6.712a.778.778 0 0 1-.78-.776v-1.642c0-.429.35-.776.78-.776.431 0 .78.347.78.776v1.642c0 .429-.349.776-.78.776Zm-3.282 0a.778.778 0 0 1-.78-.776v-1.642c0-.429.35-.776.78-.776.431 0 .78.347.78.776v1.642c0 .429-.349.776-.78.776Zm-3.281 0a.778.778 0 0 1-.78-.776v-1.642c0-.429.35-.776.78-.776.43 0 .78.347.78.776v1.642c0 .429-.35.776-.78.776Z"/><path d="M.67 57.503c0 .43.35.777.78.777h61.66c.43 0 .78-.347.78-.777 0-.429-.35-.776-.78-.776h-3.697v-2.122c1.306-.375 2.27-1.56 2.27-2.978a3.094 3.094 0 0 0-1.272-2.49c.47-.47.76-1.118.76-1.831a2.613 2.613 0 0 0-2.617-2.604 2.613 2.613 0 0 0-2.618 2.604c0 .714.291 1.36.76 1.83a3.094 3.094 0 0 0-1.271 2.49c0 1.476 1.04 2.708 2.426 3.027v2.074h-4.276V34.43c0-.43-.35-.776-.78-.776H49.9V13.28c0-.43-.35-.777-.78-.777h-2.01c-.134-1.519-1.053-2.798-2.105-3.423-.101-1.68-1.206-3.21-2.384-3.21h-.818V1.365c0-.43-.35-.777-.78-.777-.431 0-.781.347-.781.777V5.87h-.82c-1.178 0-2.282 1.53-2.384 3.21-1.051.625-1.97 1.904-2.103 3.423H32.28c-.43 0-.78.347-.78.777v3.526h-6.723c-.43 0-.78.347-.78.777v21.545h-1.24V16.924c0-.429-.35-.776-.781-.776h-9.592c-.431 0-.78.347-.78.776v22.204H9.973c-.431 0-.78.347-.78.776v16.824h-3.85v-2.044c1.276-.372 2.216-1.533 2.216-2.92 0-.997-.49-1.875-1.234-2.433.453-.462.735-1.09.735-1.786a2.57 2.57 0 0 0-2.574-2.56 2.569 2.569 0 0 0-2.573 2.56c0 .695.282 1.325.735 1.786a3.037 3.037 0 0 0-1.234 2.433c0 1.443 1.014 2.649 2.369 2.967v1.996H1.452a.779.779 0 0 0-.782.776Zm58.94-10.197c0 .579-.473 1.05-1.056 1.05a1.055 1.055 0 0 1-1.057-1.05c0-.58.474-1.052 1.057-1.052s1.057.472 1.057 1.052Zm-1.055 5.88c-.864 0-1.568-.7-1.568-1.56 0-.86.703-1.558 1.568-1.558.864 0 1.567.698 1.567 1.559 0 .86-.703 1.56-1.567 1.56ZM43.38 8.666h-4.717c.182-.726.614-1.199.79-1.246l3.168.003c.152.045.579.518.76 1.244Zm2.15 3.837h-9.017c.187-1.319 1.284-2.283 1.864-2.283h5.289c.58 0 1.677.964 1.864 2.283ZM40.049 53.49h11.967v3.238H40.049V53.49Zm0-4.732h11.967v3.18H40.049v-3.18Zm0-4.733h11.967v3.18H40.049v-3.18Zm0-4.509h11.967v2.956H40.049v-2.956Zm0-4.308h11.967v2.756H40.049v-2.756Zm-.78-18.4H33.06v-2.751h15.28v19.599h-8.29V17.583c0-.43-.35-.777-.78-.777ZM25.558 18.36h12.93v38.369h-12.93v-38.37Zm-4.363 20.768h-8.031V17.701h8.03v21.426Zm-6.6 10.917c0-1.64 1.307-2.976 2.915-2.976s2.916 1.335 2.916 2.976v6.683h-5.832v-6.683Zm-3.841-9.364h13.243v16.047h-2.01v-6.683c0-2.497-2.007-4.529-4.476-4.529s-4.477 2.032-4.477 4.53v6.682h-2.28V40.68ZM5.5 47.545c0 .556-.454 1.007-1.013 1.007a1.011 1.011 0 0 1-1.012-1.007c0-.556.454-1.008 1.012-1.008.559 0 1.013.452 1.013 1.008Zm-1.013 5.722a1.51 1.51 0 0 1-1.512-1.504c0-.829.678-1.504 1.512-1.504a1.51 1.51 0 0 1 1.512 1.504 1.51 1.51 0 0 1-1.512 1.504Z"/><path d="M42.274 16.783h3.758c.431 0 .78.347.78.776 0 .43-.349.777-.78.777h-3.758a.778.778 0 0 1-.78-.777c0-.429.35-.776.78-.776Zm0 3.4h3.758c.431 0 .78.347.78.776 0 .43-.349.776-.78.776h-3.758a.778.778 0 0 1-.78-.776c0-.43.35-.776.78-.776Zm0 3.399h3.758c.431 0 .78.347.78.776 0 .43-.349.777-.78.777h-3.758a.778.778 0 0 1-.78-.777c0-.429.35-.776.78-.776Zm0 3.4h3.758c.431 0 .78.347.78.776 0 .43-.349.776-.78.776h-3.758a.778.778 0 0 1-.78-.776c0-.43.35-.776.78-.776Zm0 3.4h3.758c.431 0 .78.347.78.776 0 .43-.349.777-.78.777h-3.758a.778.778 0 0 1-.78-.777c0-.43.35-.776.78-.776Z"/></g></svg>