<svg width="130" height="130" viewBox="0 0 130 130" fill="none" xmlns="http://www.w3.org/2000/svg">
<path fill-rule="evenodd" clip-rule="evenodd" d="M33 63C39.0751 63 44 58.0751 44 52C44 51.1568 43.9051 50.3357 43.7255 49.5469C50.5431 46.0027 58.2881 44 66.5 44C93.8363 44 116 66.1933 116 93.5663C116.012 100.617 114.503 107.581 111.594 114H21.4055C18.4974 107.581 17 100.617 17 93.5663C17 81.561 21.2633 70.552 28.3564 61.9747C29.7672 62.6326 31.3407 63 33 63Z" fill="#F2F2F2"/>
<path fill-rule="evenodd" clip-rule="evenodd" d="M7 115C7 114.448 7.44772 114 8 114L122 114C122.552 114 123 114.448 123 115C123 115.552 122.552 116 122 116L8 116C7.44772 116 7 115.552 7 115Z" fill="#CCCCCC"/>
<path fill-rule="evenodd" clip-rule="evenodd" d="M33 60C37.4183 60 41 56.4183 41 52C41 47.5817 37.4183 44 33 44C28.5817 44 25 47.5817 25 52C25 56.4183 28.5817 60 33 60ZM33.8333 53.212C33.8333 53.6722 33.4602 54.0453 32.9999 54.0453C32.5397 54.0453 32.1666 53.6722 32.1666 53.212L32.1666 52.3651C32.1666 51.6702 32.5595 51.035 33.1813 50.7247C34.1636 50.2345 34.5748 49.7391 34.5748 49.2363C34.5748 48.361 34.0507 47.8333 32.9999 47.8333C32.0031 47.8333 31.5483 48.2556 31.4191 49.3353C31.3645 49.7923 30.9497 50.1184 30.4927 50.0637C30.0357 50.0091 29.7096 49.5943 29.7643 49.1373C29.9919 47.2353 31.1426 46.1667 32.9999 46.1667C34.9736 46.1667 36.2415 47.4429 36.2415 49.2363C36.2415 50.478 35.4162 51.472 33.9255 52.216C33.869 52.2442 33.8333 52.3019 33.8333 52.3651L33.8333 53.212ZM31.8333 56.6667C31.8333 57.311 32.3557 57.8333 33 57.8333C33.6443 57.8333 34.1667 57.311 34.1667 56.6667C34.1667 56.0223 33.6443 55.5 33 55.5C32.3557 55.5 31.8333 56.0223 31.8333 56.6667Z" fill="#CCCCCC"/>
<path d="M24 77.5C24 79.433 22.433 81 20.5 81C18.567 81 17 79.433 17 77.5C17 75.567 18.567 74 20.5 74C22.433 74 24 75.567 24 77.5Z" fill="white"/>
<path fill-rule="evenodd" clip-rule="evenodd" d="M20.5 79C21.3284 79 22 78.3284 22 77.5C22 76.6716 21.3284 76 20.5 76C19.6716 76 19 76.6716 19 77.5C19 78.3284 19.6716 79 20.5 79ZM20.5 81C22.433 81 24 79.433 24 77.5C24 75.567 22.433 74 20.5 74C18.567 74 17 75.567 17 77.5C17 79.433 18.567 81 20.5 81Z" fill="#CCCCCC"/>
<path d="M19 61.5C19 63.9853 16.9853 66 14.5 66C12.0147 66 10 63.9853 10 61.5C10 59.0147 12.0147 57 14.5 57C16.9853 57 19 59.0147 19 61.5Z" fill="white"/>
<path fill-rule="evenodd" clip-rule="evenodd" d="M14.5 64C15.8807 64 17 62.8807 17 61.5C17 60.1193 15.8807 59 14.5 59C13.1193 59 12 60.1193 12 61.5C12 62.8807 13.1193 64 14.5 64ZM14.5 66C16.9853 66 19 63.9853 19 61.5C19 59.0147 16.9853 57 14.5 57C12.0147 57 10 59.0147 10 61.5C10 63.9853 12.0147 66 14.5 66Z" fill="#CCCCCC"/>
<path d="M49 102.476C49 102.881 49.1563 103.268 49.4345 103.554C49.7127 103.839 50.0901 104 50.4835 104H93.5152C93.7102 104 93.9032 103.961 94.0833 103.884C94.2635 103.808 94.4272 103.696 94.565 103.554C94.7029 103.413 94.8123 103.245 94.887 103.06C94.9616 102.875 95 102.677 95 102.476V52.9523L82.3864 40H50.4835C50.0902 40.0003 49.713 40.161 49.4349 40.4466C49.1567 40.7322 49.0003 41.1195 49 41.5235V102.476Z" fill="white"/>
<path fill-rule="evenodd" clip-rule="evenodd" d="M94.6415 103.629L95.9974 104.95C95.6761 105.28 95.2918 105.544 94.865 105.725L94.0833 103.884C94.2635 103.808 94.4272 103.696 94.565 103.554C94.7029 103.413 94.8123 103.245 94.887 103.06C94.9616 102.875 95 102.677 95 102.476V52.9523L82.3864 40H50.4835C50.0902 40.0003 49.713 40.161 49.4349 40.4466C49.1567 40.7322 49.0003 41.1195 49 41.5235V102.476C49 102.881 49.1563 103.268 49.4345 103.554C49.7127 103.839 50.0901 104 50.4835 104H93.5152C93.7102 104 93.9032 103.961 94.0833 103.884L94.865 105.725C94.4387 105.906 93.9798 106 93.5152 106M93.5135 106L50.4835 106C49.5422 106 48.6506 105.616 48.0016 104.949C47.3544 104.284 47 103.394 47 102.476V41.5218C47.0008 40.6049 47.3553 39.7155 48.002 39.0513C48.6504 38.3854 49.5412 38.0008 50.4818 38L82.3864 38C82.9261 38 83.4428 38.2181 83.8193 38.6046L96.4328 51.557C96.7965 51.9304 97 52.4311 97 52.9523V102.476C97 102.932 96.9126 103.385 96.7416 103.808C96.5706 104.232 96.3185 104.621 95.9974 104.95L94.6415 103.629" fill="#CCCCCC"/>
<path d="M95 53H83.4277C83.0491 53 82.6859 52.8496 82.4182 52.5818C82.1504 52.314 82 51.9508 82 51.5721V40L95 53Z" fill="#CCCCCC"/>
<path fill-rule="evenodd" clip-rule="evenodd" d="M81.6173 39.0761C81.991 38.9214 82.4211 39.0069 82.7071 39.2929L95.7071 52.2929C95.9931 52.5789 96.0787 53.009 95.9239 53.3827C95.7691 53.7564 95.4045 54 95 54H83.4277C82.7838 54 82.1663 53.7442 81.711 53.2889C81.2557 52.8336 81 52.216 81 51.5722V40C81 39.5956 81.2436 39.2309 81.6173 39.0761ZM83 42.4142V51.5722C83 51.6857 83.0451 51.7945 83.1253 51.8747C83.2055 51.955 83.3143 52 83.4277 52H92.5858L83 42.4142Z" fill="#CCCCCC"/>
<path d="M86 75H82L82.9563 71.3277C82.98 71.2375 83.0774 71.1542 83.23 71.0938C83.3827 71.0334 83.58 71 83.7844 71H84.2156C84.42 71 84.6173 71.0334 84.77 71.0938C84.9226 71.1542 85.02 71.2375 85.0437 71.3277L86 75Z" fill="#F2F2F2"/>
<path d="M88 75.6782C88.0001 75.5892 87.9679 75.501 87.9052 75.4187C87.8424 75.3364 87.7504 75.2617 87.6344 75.1987C87.5184 75.1357 87.3806 75.0857 87.229 75.0516C87.0773 75.0175 86.9148 75 86.7506 75H79V79H87.9972L88 75.6782Z" fill="#F2F2F2"/>
<path fill-rule="evenodd" clip-rule="evenodd" d="M83.8146 72L83.2938 74H84.7062L84.1854 72H83.8146ZM86.773 74.0001L86.0114 71.0757L86.011 71.0744C85.8616 70.5037 85.3685 70.2552 85.138 70.164C84.8433 70.0474 84.5163 70 84.2156 70H83.7844C83.4838 70 83.1567 70.0474 82.862 70.164C82.6315 70.2552 82.1384 70.5037 81.989 71.0744L81.2271 74H79C78.4477 74 78 74.4477 78 75V79C78 79.5523 78.4477 80 79 80H87.9972C88.5491 80 88.9967 79.5528 88.9972 79.0008L89 75.6796C89 75.6798 89 75.6794 89 75.6796C89.0003 75.3369 88.8737 75.0397 88.7004 74.8124C88.5319 74.5914 88.3186 74.4322 88.1115 74.3198C87.9016 74.2059 87.6744 74.1268 87.4483 74.076C87.228 74.0265 86.9995 74.0016 86.773 74.0001ZM80 76V78H86.998L86.9997 76.0251C86.9262 76.0094 86.841 76 86.7506 76H80ZM87 75.6774C87 75.6775 87 75.6772 87 75.6774V75.6774Z" fill="#CCCCCC"/>
<path d="M71.5947 75.5847V99.0001H88.1938V83.8845L71.5947 75.5847Z" fill="white"/>
<path fill-rule="evenodd" clip-rule="evenodd" d="M71.485 74.1428C71.7858 73.962 72.1595 73.9522 72.4695 74.117L88.4695 82.6241C88.7959 82.7977 89 83.1373 89 83.507V99C89 99.5523 88.5523 100 88 100H72C71.4477 100 71 99.5523 71 99V75C71 74.649 71.1841 74.3236 71.485 74.1428ZM73 76.6643V98H87V84.1079L73 76.6643Z" fill="#CCCCCC"/>
<path d="M90 83.1981C89.9999 83.3348 89.9653 83.4692 89.8994 83.5885C89.8335 83.7079 89.7385 83.8083 89.6234 83.8802C89.5083 83.952 89.377 83.993 89.2418 83.9992C89.1067 84.0054 88.9722 83.9766 88.8512 83.9155L70.4388 74.6131C70.307 74.5464 70.1962 74.444 70.1187 74.3173C70.0412 74.1906 70.0001 74.0446 70 73.8957V71.8018C69.9999 71.6651 70.0344 71.5306 70.1002 71.4112C70.1661 71.2918 70.2611 71.1914 70.3761 71.1196C70.4912 71.0478 70.6226 71.0069 70.7577 71.0008C70.8928 70.9947 71.0273 71.0237 71.1482 71.0849L89.5612 80.3868C89.693 80.4535 89.8038 80.5559 89.8813 80.6826C89.9588 80.8093 89.9999 80.9552 90 81.1042V83.1981Z" fill="#F2F2F2"/>
<path fill-rule="evenodd" clip-rule="evenodd" d="M71 72.1304V73.7763L89 82.8703V81.2236L71 72.1304ZM71.5991 70.1924C71.3252 70.0538 71.02 69.988 70.7129 70.0018C70.4054 70.0156 70.1071 70.1087 69.8466 70.2713C69.5861 70.434 69.3723 70.6605 69.2245 70.9284C69.077 71.1961 68.9999 71.4966 69 71.8018C69 71.8017 69 71.8019 69 71.8018V73.8957C69.0002 74.228 69.0918 74.555 69.2656 74.839C69.4394 75.1232 69.6888 75.3543 69.9872 75.5053L88.4003 84.8081C88.6745 84.9464 88.9803 85.0122 89.2876 84.9981C89.5948 84.9841 89.8928 84.8909 90.1531 84.7284C90.4134 84.5658 90.627 84.3395 90.7748 84.0719C90.9225 83.8043 90.9998 83.5038 91 83.1986V81.1042C90.9998 80.7719 90.9082 80.4449 90.7344 80.1608C90.5606 79.8767 90.3112 79.6455 90.0128 79.4945L71.6 70.1928C71.6003 70.193 71.5998 70.1927 71.6 70.1928C71.6 70.1928 71.5992 70.1924 71.5991 70.1924Z" fill="#CCCCCC"/>
<path d="M85 91.8435C85 91.62 84.9124 91.4056 84.7564 91.2475C84.6004 91.0893 84.3888 91.0003 84.1681 91H75.8332C75.6122 91 75.4003 91.0889 75.244 91.247C75.0878 91.4052 75 91.6198 75 91.8435V99H85V91.8435Z" fill="#F2F2F2"/>
<path fill-rule="evenodd" clip-rule="evenodd" d="M74.5326 90.5443C74.8754 90.1972 75.343 90 75.8332 90H84.1696C84.6593 90.0007 85.1262 90.1983 85.4684 90.5453C85.8102 90.8918 86 91.359 86 91.8435V99C86 99.5523 85.5523 100 85 100H75C74.4477 100 74 99.5523 74 99V91.8435C74 91.3585 74.1902 90.8909 74.5326 90.5443ZM81 98H84V92H81V98ZM79 92V98H76V92H79Z" fill="#CCCCCC"/>
<path d="M72 75L56.4536 82.4093C56.3173 82.4752 56.2027 82.5766 56.1226 82.702C56.0424 82.8275 56 82.9721 56 83.1197V85.2037C55.9997 85.3396 56.0354 85.4732 56.1036 85.5919C56.1718 85.7106 56.2703 85.8104 56.3897 85.8817C56.5091 85.953 56.6453 85.9935 56.7855 85.9993C56.9256 86.0051 57.0649 85.9759 57.1901 85.9147L72 78.8606V75Z" fill="#CCCCCC"/>
<path d="M71 78L55.4536 84.7357C55.3173 84.7956 55.2027 84.8878 55.1226 85.0019C55.0424 85.1159 55 85.2474 55 85.3815V87.2761C54.9997 87.3996 55.0354 87.5211 55.1036 87.629C55.1718 87.7369 55.2703 87.8276 55.3897 87.8925C55.5091 87.9573 55.6453 87.9941 55.7855 87.9993C55.9256 88.0046 56.0649 87.9781 56.1901 87.9224L71 81.5096V78Z" fill="#F2F2F2"/>
<path d="M58 99H72V81L58 88.0516V99Z" fill="white"/>
<path fill-rule="evenodd" clip-rule="evenodd" d="M72.5245 80.1486C72.82 80.3306 73 80.6529 73 81V99C73 99.5523 72.5523 100 72 100H58C57.4477 100 57 99.5523 57 99V88.0516C57 87.6739 57.2128 87.3284 57.5502 87.1585L71.5502 80.1069C71.8602 79.9508 72.2289 79.9665 72.5245 80.1486ZM59 88.6676V98H71V82.6234L59 88.6676Z" fill="#CCCCCC"/>
<path d="M69 91.8419C69 91.6186 68.9298 91.4045 68.8048 91.2466C68.6798 91.0887 68.5102 91 68.3335 91H61.667C61.5795 90.9999 61.4927 91.0216 61.4118 91.0639C61.3309 91.1062 61.2573 91.1682 61.1954 91.2464C61.1335 91.3246 61.0843 91.4174 61.0508 91.5196C61.0173 91.6218 61 91.7313 61 91.8419V99H69V91.8419Z" fill="#F2F2F2"/>
<path fill-rule="evenodd" clip-rule="evenodd" d="M61.6673 90C61.6674 90 61.6672 90 61.6673 90H68.3335C68.8609 90 69.304 90.2661 69.5888 90.6259C69.869 90.9798 70 91.4193 70 91.8419V99C70 99.5523 69.5523 100 69 100H61C60.4477 100 60 99.5523 60 99V91.8419C60 91.6285 60.0331 91.4135 60.1006 91.2078C60.168 91.0024 60.2708 90.803 60.4116 90.6254C60.5525 90.4475 60.7324 90.2906 60.9488 90.1776C61.1664 90.0639 61.4116 89.9999 61.6673 90ZM62 96V98H68V96H62ZM68 94H62V92H68V94Z" fill="#CCCCCC"/>
<path d="M80 87C81.1046 87 82 86.1046 82 85C82 83.8954 81.1046 83 80 83C78.8954 83 78 83.8954 78 85C78 86.1046 78.8954 87 80 87Z" fill="#F2F2F2"/>
<path fill-rule="evenodd" clip-rule="evenodd" d="M77 85C77 83.3431 78.3431 82 80 82C81.6569 82 83 83.3431 83 85C83 86.6569 81.6569 88 80 88C78.3431 88 77 86.6569 77 85ZM80 84C79.4477 84 79 84.4477 79 85C79 85.5523 79.4477 86 80 86C80.5523 86 81 85.5523 81 85C81 84.4477 80.5523 84 80 84Z" fill="#CCCCCC"/>
<path fill-rule="evenodd" clip-rule="evenodd" d="M53 47.8C53 46.8059 53.8059 46 54.8 46H75.3579C76.352 46 77.1579 46.8059 77.1579 47.8C77.1579 48.7941 76.352 49.6 75.3579 49.6H54.8C53.8059 49.6 53 48.7941 53 47.8ZM53 55.0001C53 54.006 53.8059 53.2001 54.8 53.2001H75.3579C76.352 53.2001 77.1579 54.006 77.1579 55.0001C77.1579 55.9942 76.352 56.8001 75.3579 56.8001H54.8C53.8059 56.8001 53 55.9942 53 55.0001ZM54.8 60.3999C53.8059 60.3999 53 61.2058 53 62.1999C53 63.1941 53.8059 63.9999 54.8 63.9999H85.2C86.1941 63.9999 87 63.1941 87 62.1999C87 61.2058 86.1941 60.3999 85.2 60.3999H54.8Z" fill="#CCCCCC"/>
<path opacity="0.6" d="M69 84C69 84 69 87.5 65 93.5C61 99.5 51.085 101.437 46.1176 100.925L46 84H69Z" fill="#CCCCCC"/>
<path d="M33.9593 71.3451C35.8097 68.4167 38.4736 66.0867 41.6269 64.6386C44.7802 63.1905 48.2867 62.6869 51.7198 63.189C55.1528 63.691 58.3642 65.1772 60.9631 67.4666C63.5619 69.7559 65.4362 72.7497 66.3576 76.0834C67.279 79.4172 67.2079 82.9471 66.1529 86.2435C65.0979 89.54 63.1045 92.4607 60.4154 94.6503C57.7263 96.8398 54.4575 98.2036 51.0069 98.5758C47.5562 98.9479 44.0726 98.3123 40.9801 96.7464L38.7596 100.245L36.0317 98.5347L38.2522 95.0358C34.6945 92.3398 32.2805 88.4123 31.4859 84.0272C30.6913 79.6421 31.5738 75.1175 33.9593 71.3451Z" fill="white"/>
<path d="M34.0194 98.6468C34.1889 98.3867 34.4525 98.2016 34.7554 98.1301C34.9057 98.0935 35.0618 98.0877 35.2144 98.1131C35.3669 98.1386 35.5126 98.1947 35.6426 98.2781L39.1616 100.485C39.2963 100.563 39.4133 100.668 39.5055 100.794C39.5977 100.919 39.6631 101.062 39.6976 101.213C39.7321 101.365 39.735 101.522 39.7061 101.675C39.6773 101.828 39.6172 101.973 39.5297 102.102L32.7642 112.809C32.2625 113.421 31.5537 113.829 30.7714 113.957C29.9891 114.085 29.1872 113.924 28.5167 113.503C27.8461 113.083 27.3532 112.432 27.1307 111.674C26.9082 110.916 26.9714 110.103 27.3085 109.388L34.0194 98.6468Z" fill="white"/>
<path d="M46.2376 67.3173C48.9472 66.6994 51.7788 66.8964 54.3742 67.8831C56.9695 68.8699 59.212 70.6022 60.8178 72.8608C62.4237 75.1194 63.3207 77.8028 63.3953 80.5715C63.47 83.3401 62.719 86.0695 61.2373 88.4143C59.7556 90.7592 57.6098 92.614 55.0716 93.7442C52.5333 94.8743 49.7165 95.229 46.9778 94.7633C44.239 94.2976 41.7014 93.0324 39.6859 91.1279C37.6704 89.2234 36.2677 86.7652 35.6553 84.0643C34.8352 80.4476 35.489 76.6527 37.4731 73.5128C39.4572 70.3729 42.6094 68.1447 46.2376 67.3173Z" fill="#FAFAFA"/>
<path fill-rule="evenodd" clip-rule="evenodd" d="M51.5751 64.1784C48.3333 63.7043 45.0219 64.1799 42.0442 65.5473C39.0666 66.9148 36.5515 69.1148 34.8047 71.8792C32.5528 75.4402 31.72 79.7108 32.4699 83.8489C33.2197 87.987 35.4978 91.6939 38.8561 94.2388C39.2707 94.553 39.3752 95.1325 39.0965 95.5716L37.4205 98.2126L38.4539 98.8606L40.1357 96.2105C40.4116 95.7758 40.9725 95.6216 41.4318 95.8542C44.3516 97.3327 47.641 97.933 50.8996 97.5815C54.1583 97.2301 57.245 95.9422 59.784 93.8748C62.3231 91.8075 64.2047 89.0501 65.2005 85.9387C66.1962 82.8274 66.2633 79.496 65.3937 76.3498C64.5241 73.2037 62.7553 70.378 60.3021 68.2169C57.8488 66.0558 54.8168 64.6525 51.5751 64.1784ZM35.3828 99.2955C35.4196 99.3269 35.4589 99.3558 35.5005 99.3819L38.2284 101.092C38.2705 101.119 38.3139 101.142 38.3582 101.161L38.6303 101.332C38.6396 101.338 38.649 101.343 38.6585 101.349C38.675 101.359 38.689 101.371 38.6999 101.386C38.7109 101.401 38.7185 101.418 38.7225 101.435C38.7266 101.453 38.7269 101.471 38.7235 101.489C38.7201 101.507 38.713 101.525 38.7024 101.54C38.6962 101.55 38.6902 101.559 38.6844 101.568L31.9548 112.218C31.6101 112.618 31.1341 112.885 30.6101 112.97C30.0675 113.059 29.5119 112.947 29.0479 112.656C28.584 112.365 28.2437 111.916 28.0902 111.393C27.9417 110.887 27.9775 110.345 28.1908 109.863L34.8603 99.1882C34.8894 99.1461 34.9337 99.1155 34.9851 99.1034L34.9922 99.1017C35.0111 99.097 35.0308 99.0963 35.0499 99.0995C35.0689 99.1027 35.0869 99.1097 35.1028 99.1198L35.3828 99.2955ZM35.6921 97.2036C35.59 97.1702 35.4853 97.1445 35.3789 97.1268C35.0941 97.0793 34.8027 97.0898 34.5222 97.1577C33.9713 97.2886 33.4911 97.626 33.1816 98.1009L33.1713 98.117L26.4604 108.858C26.4395 108.891 26.4206 108.926 26.4038 108.961C25.9626 109.898 25.8796 110.963 26.1712 111.956C26.4627 112.949 27.1083 113.8 27.9854 114.35C28.8625 114.9 29.9107 115.111 30.9328 114.944C31.9548 114.777 32.8813 114.243 33.5376 113.443C33.5636 113.411 33.5877 113.378 33.6096 113.343L40.3677 102.648C40.5263 102.41 40.6356 102.142 40.6888 101.861C40.7431 101.573 40.7377 101.277 40.6727 100.992C40.6077 100.706 40.4846 100.437 40.3111 100.201C40.2517 100.12 40.1868 100.044 40.117 99.9727L41.3498 98.03C44.404 99.396 47.7738 99.9303 51.1141 99.57C54.7568 99.1772 58.2077 97.7374 61.0468 95.4257C63.886 93.114 65.9911 90.0299 67.1053 86.5484C68.2195 83.0668 68.2947 79.3384 67.3214 75.817C66.3482 72.2957 64.3686 69.1338 61.6241 66.7162C58.8796 64.2986 55.4888 62.7295 51.8645 62.1995C48.2402 61.6694 44.5384 62.2011 41.2096 63.7298C37.8807 65.2586 35.0679 67.7186 33.114 70.8109C30.5948 74.7947 29.6626 79.5735 30.5019 84.2055C31.2864 88.5347 33.565 92.4412 36.9269 95.2579L35.6921 97.2036ZM56.3041 69.9537C57.6656 70.8406 58.8552 71.9782 59.8048 73.3138C61.2957 75.4108 62.1283 77.9018 62.1977 80.4719C62.267 83.042 61.5698 85.5762 60.1939 87.7537C58.8179 89.9312 56.8249 91.6542 54.4668 92.7041C52.1086 93.7541 49.4917 94.0836 46.9474 93.6509C45.2553 93.3632 43.6461 92.747 42.2074 91.8464C41.5565 91.4223 40.9421 90.9392 40.3727 90.4011C38.5012 88.6326 37.199 86.3504 36.6305 83.8432C35.8693 80.4859 36.476 76.9627 38.3185 74.047C40.161 71.1311 43.089 69.061 46.46 68.2923C48.9774 67.7182 51.608 67.9012 54.0188 68.8179C54.82 69.1225 55.585 69.5036 56.3041 69.9537ZM45.8173 66.2159C48.719 65.5542 51.7516 65.765 54.5315 66.822C55.5351 67.2035 56.4896 67.6892 57.3805 68.268C59.0402 69.3097 60.4875 70.6705 61.6329 72.2814C63.3536 74.7016 64.315 77.5773 64.395 80.5445C64.475 83.5116 63.6701 86.4363 62.0826 88.9485C60.4952 91.4606 58.1967 93.4473 55.4783 94.6577C52.7599 95.868 49.7433 96.2479 46.8102 95.7491C44.7754 95.4031 42.844 94.6451 41.1309 93.532C40.3008 93.0109 39.5199 92.4076 38.801 91.7283C36.6416 89.6877 35.1383 87.0535 34.482 84.1589C33.6031 80.2827 34.304 76.2162 36.4297 72.8521C38.5553 69.4882 41.9318 67.1019 45.8173 66.2159Z" fill="#CCCCCC"/>
</svg>
