<svg xmlns="http://www.w3.org/2000/svg" viewBox="0 0 54 50"><path fill="#E03C31" d="M44.1 41.964h1.8v1.786h-1.8v-1.786ZM3.6 25.893h1.8v-1.786H3.6v1.786ZM45.9 6.25h-1.8v1.786h1.8V6.25Zm2.788 34.06c.509.725.812 1.6.812 2.547 0 2.462-2.019 4.464-4.5 4.464a4.478 4.478 0 0 1-2.919-1.095A25.22 25.22 0 0 1 28.8 50a25.236 25.236 0 0 1-16.922-6.481 25.074 25.074 0 0 1-6.84-10.184l1.697-.597a23.275 23.275 0 0 0 5.78 8.91 25.133 25.133 0 0 1 4.845-3.205c-1.228-3.629-1.965-7.91-2.048-12.551H8.909A4.499 4.499 0 0 1 4.5 29.464C2.019 29.464 0 27.462 0 25c0-2.462 2.019-4.464 4.5-4.464a4.5 4.5 0 0 1 4.41 3.571h6.403c.083-4.64.819-8.921 2.047-12.549a25.165 25.165 0 0 1-4.845-3.206 23.284 23.284 0 0 0-5.78 8.91l-1.697-.596A25.079 25.079 0 0 1 11.88 6.481 25.229 25.229 0 0 1 28.8 0c4.721 0 9.293 1.313 13.281 3.774A4.478 4.478 0 0 1 45 2.68c2.481 0 4.5 2.002 4.5 4.464 0 .947-.303 1.822-.812 2.545C52.106 14.052 54 19.453 54 25c0 5.548-1.894 10.948-5.312 15.31ZM7.2 25c0-1.477-1.211-2.679-2.7-2.679S1.8 23.523 1.8 25c0 1.477 1.211 2.679 2.7 2.679S7.2 26.477 7.2 25ZM42.3 7.143c0 1.477 1.211 2.678 2.7 2.678s2.7-1.201 2.7-2.678c0-1.477-1.211-2.679-2.7-2.679s-2.7 1.202-2.7 2.679Zm-.219 3.37a25.26 25.26 0 0 1-1.845 1.033c1.23 3.63 1.968 7.915 2.051 12.561h9.873a23.086 23.086 0 0 0-4.787-13.187c-.692.428-1.5.687-2.373.687a4.482 4.482 0 0 1-2.919-1.095Zm-7.203-7.92c1.876 1.714 3.493 4.204 4.735 7.264.46-.24.912-.494 1.359-.764a4.38 4.38 0 0 1-.472-1.95c0-.703.18-1.358.47-1.95a23.353 23.353 0 0 0-6.092-2.6ZM29.7 12.468a23.437 23.437 0 0 0 8.277-1.841c-1.97-4.94-4.926-8.256-8.277-8.765v10.606Zm-10.014-1.821A23.47 23.47 0 0 0 27.9 12.46V1.865c-3.28.523-6.23 3.868-8.214 8.78Zm-1.697-.79c1.241-3.06 2.859-5.55 4.734-7.263a23.344 23.344 0 0 0-8.829 4.55 23.294 23.294 0 0 0 4.095 2.713Zm4.734 37.551c-1.875-1.712-3.493-4.203-4.734-7.262a23.273 23.273 0 0 0-4.095 2.712 23.357 23.357 0 0 0 8.83 4.55ZM27.9 37.54c-2.875.11-5.67.738-8.275 1.84 1.97 4.938 4.927 8.25 8.275 8.76v-10.6Zm1.8-9.861v8.067c3.08.108 6.082.768 8.89 1.945 1.129-3.417 1.816-7.456 1.897-11.799H35.1v-1.786h5.387c-.082-4.343-.768-8.382-1.898-11.799a25.226 25.226 0 0 1-8.889 1.946v8.068h-1.8v-8.056a25.3 25.3 0 0 1-8.84-1.926c-1.154 3.432-1.862 7.47-1.948 11.768H22.5v1.786h-5.388c.083 4.338.77 8.374 1.896 11.79a25.286 25.286 0 0 1 8.892-1.948v-8.056h1.8Zm8.275 11.696a23.404 23.404 0 0 0-8.275-1.842v10.606c3.35-.509 6.307-3.825 8.275-8.764Zm2.525 3.482c0-.702.18-1.358.47-1.95-.446-.27-.898-.525-1.36-.764-1.24 3.06-2.857 5.549-4.732 7.262a23.39 23.39 0 0 0 6.093-2.598 4.395 4.395 0 0 1-.471-1.95Zm7.2 0c0-1.477-1.211-2.678-2.7-2.678s-2.7 1.201-2.7 2.678c0 1.477 1.211 2.679 2.7 2.679s2.7-1.202 2.7-2.679Zm4.46-16.963h-9.873c-.082 4.645-.82 8.931-2.05 12.56a25.26 25.26 0 0 1 1.844 1.033A4.482 4.482 0 0 1 45 38.393c.874 0 1.682.258 2.373.687a23.09 23.09 0 0 0 4.787-13.186Zm-27.86-.002h1.8v-1.786h-1.8v1.786Zm3.6 0h1.8v-1.786h-1.8v1.786Zm5.4-1.786h-1.8v1.786h1.8v-1.786Z"/></svg>