<svg xmlns="http://www.w3.org/2000/svg" viewBox="0 0 55 51"><g fill="#E03C31"><path d="M12.75 5.464h16.393v1.821H12.75zm0 3.643h16.393v1.821H12.75zm0 3.643h11.839v1.821H12.75z"/><path d="M7.286 26.775v-6.74H2.732C1.184 20.036 0 18.853 0 17.305V2.732C0 1.184 1.184 0 2.732 0h27.322c1.548 0 2.732 1.184 2.732 2.732v14.572c0 1.548-1.184 2.732-2.732 2.732H14.025l-6.74 6.739ZM2.732 1.821c-.546 0-.91.365-.91.911v14.572c0 .546.364.91.91.91h6.375v4.19l4.19-4.19h16.757c.546 0 .91-.364.91-.91V2.732c0-.546-.364-.91-.91-.91H2.732Z"/><path d="M7.286 8.196c-1.548 0-2.732-1.183-2.732-2.732 0-1.548 1.183-2.732 2.732-2.732 1.548 0 2.732 1.184 2.732 2.732 0 1.548-1.184 2.732-2.732 2.732Zm0-3.642c-.547 0-.911.364-.911.91 0 .547.364.911.91.911.547 0 .911-.364.911-.91 0-.547-.364-.911-.91-.911Zm3.643 12.75H6.375v-1.822h2.732V12.75c0-1.002-.82-1.821-1.821-1.821-1.002 0-1.822.82-1.822 1.821v4.554H3.643V12.75a3.654 3.654 0 0 1 3.643-3.643 3.654 3.654 0 0 1 3.643 3.643v4.554ZM47.357 33.15l-6.74-6.74H24.59c-1.548 0-2.732-1.183-2.732-2.731v-1.822h1.822v1.822c0 .546.364.91.91.91h16.757l4.19 4.19v-4.19h6.375c.546 0 .91-.364.91-.91V9.107c0-.546-.364-.91-.91-.91H34.607V6.374h17.304c1.548 0 2.732 1.184 2.732 2.732V23.68c0 1.548-1.184 2.732-2.732 2.732h-4.554v6.739Z"/><path d="M34.607 11.839h7.286v1.821h-7.286zm0 3.643h7.286v1.821h-7.286zm1.822 3.643h5.464v1.821h-5.464zm10.928-4.554c-1.548 0-2.732-1.184-2.732-2.732 0-1.548 1.184-2.732 2.732-2.732 1.548 0 2.732 1.184 2.732 2.732 0 1.548-1.184 2.732-2.732 2.732Zm0-3.642c-.546 0-.91.364-.91.91 0 .547.364.911.91.911.547 0 .91-.364.91-.91 0-.547-.363-.911-.91-.911ZM51 23.679h-1.821v-4.554c0-1.002-.82-1.821-1.822-1.821-1.002 0-1.821.82-1.821 1.821v2.732h2.732v1.822h-4.554v-4.554a3.654 3.654 0 0 1 3.643-3.643A3.654 3.654 0 0 1 51 19.125v4.554ZM17.304 37.704v-6.74H12.75c-1.548 0-2.732-1.184-2.732-2.732V25.5h1.821v2.732c0 .547.365.91.911.91h6.375v4.19l4.19-4.19H40.07v1.822H24.043l-6.74 6.74ZM47.813 50.09c-.183 0-.274 0-.456-.092l-3.643-2.003-3.643 2.003c-.364.182-.728.182-1.001-.09a1.028 1.028 0 0 1-.274-1.003l1.184-4.007-3.187-2.823c-.273-.273-.364-.638-.273-1.002.09-.364.455-.546.82-.546h4.006l1.549-3.552c.182-.364.455-.546.82-.546.364 0 .728.182.819.546l1.548 3.552h4.007c.365 0 .729.273.82.546.091.364 0 .729-.273 1.002l-3.188 2.823 1.184 4.007c.091.365 0 .729-.273 1.002-.182.091-.364.182-.547.182Zm-4.099-4.099c.182 0 .273 0 .456.091l2.094 1.184-.728-2.368c-.091-.364 0-.728.273-.91l1.821-1.549h-2.094c-.365 0-.729-.182-.82-.546l-1.002-2.277-1.002 2.186c-.182.364-.455.546-.82.546h-2.094l1.822 1.548c.273.274.364.638.273.911l-.729 2.368 2.095-1.184h.455ZM15.027 50.09c-.182 0-.273 0-.456-.092l-3.642-2.003-3.643 2.003c-.365.182-.729.182-1.002-.09-.273-.274-.364-.638-.273-1.003l1.184-4.007-3.188-2.823c-.364-.182-.455-.638-.273-1.002.091-.364.455-.546.82-.546H8.56l1.548-3.552c.182-.364.455-.546.82-.546.364 0 .728.182.82.546l1.547 3.552h4.008c.364 0 .728.273.82.546.09.364 0 .729-.274 1.002l-3.188 2.823 1.184 4.007c.091.365 0 .729-.273 1.002-.182.091-.364.182-.546.182Zm-4.098-4.099c.182 0 .273 0 .455.091l2.095 1.184-.729-2.368c-.091-.364 0-.728.273-.91l1.822-1.549H12.75c-.364 0-.729-.182-.82-.546l-1.001-2.277-1.002 2.186c-.182.364-.456.546-.82.546H7.013l1.82 1.548c.274.274.365.638.274.911l-.728 2.368 2.094-1.184h.456ZM31.42 50.09c-.183 0-.274 0-.456-.092l-3.643-2.003-3.642 2.003c-.365.182-.729.182-1.002-.09-.273-.274-.364-.638-.273-1.003l1.183-4.007-3.187-2.823a1.028 1.028 0 0 1-.273-1.002c.09-.364.455-.546.82-.546h4.007l1.548-3.552c.182-.364.455-.546.82-.546.364 0 .728.182.82.546l1.547 3.552h4.007c.365 0 .729.273.82.546.091.364 0 .729-.273 1.002l-3.188 2.823 1.184 4.007c.091.365 0 .729-.273 1.002-.182.091-.364.182-.546.182Zm-4.1-4.1c.183 0 .274 0 .456.091l2.094 1.184-.728-2.368c-.091-.364 0-.728.273-.91l1.822-1.549h-2.095c-.364 0-.729-.182-.82-.546l-1.002-2.277-1.001 2.186c-.183.364-.456.546-.82.546h-2.095l1.822 1.548c.273.274.364.638.273.911l-.729 2.368 2.095-1.184h.455Z"/></g></svg>