<svg xmlns="http://www.w3.org/2000/svg" fill="#fff" stroke-linecap="round" stroke-linejoin="round" viewBox="0 0 1064 178"><path d="M596.50000916 39.9c-.4 0-.8-.3-.8-.8v-9.3c0-.4.3-.8.8-.8h27.3c1.9 0 3.1 1.5 3.1 3 0 0 .1 1.6 0 3.2-.5 18.5-11.9 31.5-30.2 31.5s-32-14.8-32-33.4 13.8-33.8 32.3-33.8c14.5 0 22.2 9.2 22.7 9.5.3.3.3.8 0 1.1l-6.9 7.3c-.3.3-.8.3-1.1 0-.4-.4-5.7-6.6-14.6-6.6-12.1 0-20.4 10.2-20.4 22.3s8.4 22 20.2 22c9.4 0 16.2-5 17.8-13.2 0-.3.1-.4.1-.6 0-.9-.7-1.6-1.6-1.6l-16.7.2zm53.1 26.3c-8.7999 0-15.5-6.5-15.5-18v-27c0-.4.3-.8.8-.8h10.0999c.4001 0 .8002.3.8002.8v24.2c0 7.1 3.0999 10.5 8.8999 10.5s9.3-3.7 9.3-10.5V21.1c0-.4.3-.8.8-.8h10.1c.3999 0 .8.3.8.8v43.5c0 .4-.3.8-.8.8h-9.3001c-.3999 0-.7999-.4-.7999-.8v-8c0-.4-.3-.8-.8-.8s-.6999.3-.8.7c-1.1 3.8-4.6 9.7-13.6 9.7zm-336.9-47c-13.1 0-23.7 10.6-23.7 23.7s10.6 23.7 23.7 23.7 23.7-10.6 23.7-23.7-10.6-23.7-23.7-23.7zm0 36.3c-6.8 0-12.3-5.7-12.3-12.7s5.5-12.7 12.3-12.7 12.3 5.7 12.3 12.7-5.4 12.7-12.3 12.7zm-32.9-25.1c-2.8 0-5.7 1.4-7.3 4.7-1.1 2.3-1.5 5.5-1.5 9.8v19.7c0 .4-.4.8-.8.8h-10.1c-.4 0-.8-.4-.8-.8V21.1c0-.4.4-.8.8-.8h9.2999c.4001 0 .8001.3.8001.8v8c0 .4.4.8.8.8s.7-.3.8-.7c.8-2.7 2-6.1 4.6-8.2 1.4-1.2 3.2-1.7 4.9-1.7 1.5 0 3.0999.4 4.7 1.4.2.1.4.4.4.7v9.9c0 .4-.4.8-.8.8-.2 0-.3-.1-.4-.1-1.4-.8-3.1-1.6-5.4-1.6zm192 0c-2.8 0-5.7 1.4-7.3 4.7-1.1 2.3-1.5 5.5-1.5 9.8v19.7c0 .4-.3.8-.8.8h-10.1c-.4 0-.8-.4-.8-.8V21.1c0-.4.3-.8.8-.8h9.3c.4 0 .8.3.8.8v8c0 .4.3.8.8.8s.7-.3.8-.7c.8-2.7 2-6.1 4.6-8.2 1.4-1.2 3.2-1.7 4.9-1.7 1.5 0 3.1.4 4.7 1.4.2.1.3.4.3.7v9.9c0 .4-.3.8-.8.8-.2 0-.3-.1-.4-.1-1.3-.8-3-1.6-5.3-1.6zm234.3 0c-2.7999 0-5.7 1.4-7.3 4.7-1.1 2.3-1.5 5.5-1.5 9.8v19.7c0 .4-.3.8-.8.8h-10.1c-.4 0-.8001-.4-.8001-.8V21.1c0-.4.3-.8.8001-.8h9.3c.4 0 .8.3.8.8v8c0 .4.3.8.8.8s.7001-.3.7999-.7c.8001-2.7 2.0001-6.1 4.6001-8.2 1.4-1.2 3.1999-1.7 4.9-1.7 1.5 0 3.1.4 4.7 1.4.1999.1.3.4.3.7v9.9c0 .4-.3.8-.8.8-.2 0-.3-.1-.4-.1-1.3-.8-3.0999-1.6-5.3-1.6zm28.2 35.8c-8.7999 0-15.5-6.5-15.5-18v-27c0-.4.3-.8.8-.8h10.1c.4 0 .8001.3.8001.8v24.2c0 7.1 3.0999 10.5 8.8999 10.5s9.2999-3.7 9.2999-10.5V21.1c0-.4.3001-.8.8001-.8h10.1c.3999 0 .8.3.8.8v43.5c0 .4-.3.8-.8.8h-9.3001c-.3999 0-.7999-.4-.7999-.8v-8c0-.4-.3-.8-.8001-.8s-.6998.3-.7999.7c-1.1 3.8-4.5001 9.7-13.6 9.7zm-176.4-45.9h-10.6c-.3 0-.6.2-.7.5l-6.4 18.1c-1.1 3.2-3 8.6-4 12.5-.1.3-.4.6-.8.6-.3 0-.7-.2-.8-.6-1.1-4-3-9.3-4.2-12.6l-6.6-18.1c-.1-.3-.4-.5-.7-.5h-10.6c-.4 0-.8.3-.8.8 0 .1 0 .2.1.3l17.5 44-6.8 17.1c0 .1-.1.2-.1.3 0 .4.3.8.8.8h10.2c.3 0 .6-.2.7-.5l24.5-61.7V21c.1-.3-.2-.7-.7-.7zm-328.8-19.7h-20.1c-1.7 0-3.1 1.4-3.1 3.2v60.9c0 .4.4.8.8.8h10.1c.4 0 .8-.4.8-.8V49.5c0-.9.7-1.6 1.6-1.6h9.9c13.5 0 24.1-10.6 24.1-23.7s-10.6-23.7-24.1-23.6zm-1 36.7h-9c-.9 0-1.6-.7-1.6-1.6V12.8c0-.9.7-1.6 1.6-1.6h9c7.6 0 13.5 5.8 13.5 13.1s-5.9 13-13.5 13zm268.2-6.2c0-.4.3-.8.8-.8h9.3c.4 0 .8-.3.8-.8v-8.4c0-.4-.3-.8-.8-.8h-10.4c-.4 0-.8-.3-.8-.8V9.1c0-.4-.3-.8-.8-.8h-9c-.4 0-.8.3-.8.8v42.7c0 11 5.3 14.8 12.3 14.8 4.4 0 7.1-1.4 8.2-1.9.3-.2.5-.4.5-.8v-6.8c0-.5-.5-1-1.2-.7-1.4.5-2.6.9-4.1.9-2.1 0-4.1-1-4.1-4.8l.1-21.4zm-125.6 35.3c11.6 0 21.1-10.1 21.1-23.5s-9.5-23.5-21.1-23.5c-9.8 0-13.8001 6.6-14.7 8.5-.2.4-.5001.5-.7.5-.4 0-.8-.3-.8-.8v-6.4c0-.4-.4-.8-.8-.8h-9.3001c-.3999 0-.7999.4-.7999.8v61.7c0 .4.4.8.7999.8h10.1001c.4 0 .8-.4.8-.8v-3c0-14.9-.8-20.9-.8-21.6 0-.4.4-.8.8-.8s.7.3.7.4c1.8 3.7 6.5 8.5 14.7 8.5zm-2.9-10.9c-6.8 0-12.3001-5.7-12.3001-12.7s5.5001-12.7 12.3001-12.7 12.3 5.7 12.3 12.7-5.5 12.7-12.3 12.7zm53.2-36.3c-13.1 0-22.7 10.6-22.7 23.7s10 23.7 23.5999 23.7c7.4001 0 13.0001-2.6 16.8001-5.6.3-.3.4-.7.2-1.1l-4.2-5.8c-.2-.4-.8-.4-1.1-.2-1.9 1.2-4.6 3.4-10.7 3.4-5.2 0-9.8-3-12-7.8-.2-.5-.5-1.1-.5-1.4 0-.4.4-.8.8-.8h29c1.3 0 3.1-.9 3.2-3.1.5-14-7.3-25-22.4-25zm10 20h-20.3c-.4 0-.8-.3-.8-.8 0-.2.2-.9.4-1.4 1.5999-5.1 5.8-8.1 11.4-8.1 4.7 0 8.2 2.3 10 5.9.5 1 1 2.3 1 2.8-.2.9-.9 1.6-1.7 1.6zm-121.2000061 60.1000061c0-2.0498 1.6502-3.7 3.7-3.7s3.7 1.6502 3.7 3.7-1.6502 3.7-3.7 3.7-3.7-1.6502-3.7-3.7zM316.8 115.6999813c0-.4-.4-.8-.8-.8h-5.1c-.4 0-.8.4-.8.8v42.7c0 .4.3.8.8.8h5.1c.4 0 .8-.4.8-.8v-42.7zm-31 18.1c-5.1-.7-12.6-1.4-12.6-6.9 0-4.1 5-7.1 10.8-7.1 4.9 0 9.2 1.8 11.9 3.8.3.2.9.1.9999-.2l2.4001-4c.2-.3.2-.7-.1-1-3.7-3.2-9.7-4.8-15.2-4.8-11.5 0-17.4 6.9-17.4 13.5 0 7.7 6.9 11 15.1 12.4 5.9 1 13.5 2.1 13.5 7.5 0 4.4-5.5 7.2-11.9 7.2-6.6 0-11.2-2.9-13.5-4.4-.4001-.3-.8-.2-1.1.1l-2.6 3.9c-.2.3-.1.7.2.9 2.9 2.6 9.2 5.6 17.1 5.6 11.9 0 18.4999-6.6 18.4999-13.8 0-8.3-7.5999-11.5-16.0999-12.7zm85.2-18.8h-4.8c-.4 0-.8.4-.8.8v6.7c0 .4-.3.6-.6.6s-.4001-.2-.6-.4c-2.7-4.4-8.3-8.8-16.9-8.8-11.6 0-22 10.1-22 23.2s10.5 23.2 22 23.2c8.6 0 14.2-4.4 16.9-8.8.1-.2.3-.4.6-.4s.6.2.6.6v6.7c0 .4.4.8.8.8h4.8c.4 0 .8-.4.8-.8v-42.7c0-.4-.3-.8-.8-.7zm-22.3 38.7c-9.1 0-16.5-7.4-16.5-16.6s7.4-16.6 16.5-16.6 16.5 7.4 16.5 16.6-7.4 16.6-16.5 16.6zm-87.5 4.5-24.7-62.1c-.1-.3-.4-.5-.7-.5h-6.1c-.3001 0-.6.2-.7.5l-24.7 62.1v.3c0 .4.4.8.8.8h5.5c.3 0 .6-.2.7-.5l5.5-13.7c.2-.6.8-1 1.4-1h29.3c.6 0 1.2.4 1.4 1l5.4999 13.7c.1001.3.4001.5.7001.5h5.5c.4 0 .8-.4.8-.8-.1-.1-.1-.2-.2-.3zm-17.6-20.8h-21.5c-.9 0-1.5-.7-1.5-1.6 0-.2 0-.4.1-.6l7.7-19.4c1.7-4.3 3.6-10.5 3.8-11.1.1-.4.4-.6.8-.6s.7.2.8.6c.1.7 2 6.8 3.7 11.1l7.7 19.4c.1.2.1.4.1.6-.2.9-.9001 1.6-1.7 1.6zm803.3-3.5c-5.1001-.7-12.6001-1.4-12.6001-6.9 0-4.1 5-7.1 10.8001-7.1 4.9 0 9.1999 1.8 11.9 3.8.2999.2.7999.1 1.1-.2l2.4-4c.2-.3.2-.7-.2001-1-3.6999-3.2-9.6999-4.8-15.1999-4.8-11.5 0-17.4 6.9-17.4 13.5 0 7.7 6.9 11 15.0999 12.4 5.9001 1 13.5 2.1 13.5 7.5 0 4.4-5.5 7.2-11.8999 7.2-6.6001 0-11.2-2.9-13.4-4.4-.4-.3-.8-.2-1.1.1l-2.7 3.9c-.2.3-.1.7.2.9 2.8 2.6 9.2 5.6 17.1 5.6 11.9 0 18.5-6.6 18.5-13.8-.1-8.3-7.6-11.5-16.1-12.7zm-28.9-38.2h-5.1c-.4 0-.8.4-.8.8v4.5l.3 21.3c0 .4-.3.6-.6001.6-.1999 0-.3999-.1-.5999-.4-2.5-4.1-8-8.5-17.1-8.5-11.4 0-21.8001 10.1-21.8001 23.2s10.4001 23.2 22 23.2c8.6001 0 14.2001-4.4 16.9001-8.8.0999-.2.3-.4.5999-.4s.6001.2.6001.6v6.7c0 .4.3.8.8.8h4.8c.4 0 .7999-.4.7999-.8v-62.1c0-.4-.2999-.7-.7999-.7zm-22.3 58.1c-9.1 0-16.5-7.4-16.5-16.6s7.4-16.6 16.5-16.6 16.5 7.4 16.5 16.6-7.4001 16.6-16.5 16.6zm-41.2-31.5c0 .4.2999.6.6.6s.5-.1.6-.4c.9-2.7 3.2-8.3 10.2-8.3 1.3999 0 3.3.4 4.8999 1.4.2001.1.3001.4.3001.6v5.6c0 .4-.3001.8-.8001.8-.1999 0-.2999-.1-.3999-.1-1.3-.8-3.1001-1.6-5.7-1.6-2.9001 0-5.9001 1.8-7.6 5.3-1.1 2.3-1.7 5.6-1.7 9.6v22.9c0 .4-.3.8-.8.8H949c-.4 0-.8-.4-.8-.8v-42.7c0-.4.3-.8.8-.8h4.7999c.4001 0 .8001.4.8001.8l-.1 6.3zm-17.3-7.3h-4.8c-.4 0-.8.4-.8.8v6.7c0 .4-.3.6-.6.6s-.4001-.2-.6-.4c-2.7-4.4-8.3-8.8-16.9-8.8-11.6 0-22 10.1-22 23.2s10.5 23.2 22 23.2c8.6 0 14.2-4.4 16.9-8.8.1001-.2.3-.4.6-.4s.6.2.6.6v6.7c0 .4.3.8.8.8h4.8c.4 0 .8001-.4.8001-.8v-42.7c0-.3-.3001-.7-.8001-.7zm-22.3 38.8c-9.0999 0-16.5001-7.4-16.5001-16.6s7.4002-16.6 16.5001-16.6 16.5 7.4 16.5 16.6-7.4 16.6-16.5 16.6zm-62.6-29.3c-.4 0-.6.2-.8.6l-12.2 33.8c-.1.3-.4.5-.6999.5H832.3c-.3 0-.6-.2-.7-.5l-16.5-42.8v-.3c0-.4.3-.8.7999-.8H821.4c.3 0 .6.2.7.5l12.5 34.6c.1.3.4.6.8.6s.7001-.3.7999-.6c.3001-.9 12.6001-34.5 12.6001-34.5.2-.4.4-.5.7-.5h5.7999c.3 0 .6.2.7001.5l12.6001 34.5c.0998.4.3999.6.7999.6s.6-.2.8-.6c.3999-1.2 12.5-34.6 12.5-34.6.0999-.3.3999-.5.6999-.5H888.9c.4 0 .8.4.8.8v.3l-16.6001 42.7c-.0998.3-.3999.5-.6999.5h-6.2999c-.3 0-.6-.2-.7001-.5l-12.2-33.8c-.3-.3-.5-.5-.9-.5zm-32.4 33.8-24.7-62.1c-.1-.3-.4-.5-.7-.5h-6.1001c-.3 0-.6.2-.6999.5l-24.6001 62.1v.3c0 .4.3.8.8001.8h5.5c.3 0 .6-.2.7-.5l5.4999-13.7c.2002-.6.8001-1 1.4001-1h29.1001c.6999 0 1.1999.4 1.3999 1l5.5001 13.7c.0998.3.3998.5.6998.5H819.2c.4 0 .8-.4.8-.8 0-.1 0-.2-.1-.3zm-17.6-20.8h-21.4999c-.8001 0-1.5001-.7-1.5001-1.6 0-.2 0-.4.1-.6l7.7-19.4c1.7-4.3 3.6-10.5 3.7999-11.1.1001-.4.4001-.6.8001-.6s.7.2.8.6c.1.7 2 6.8 3.6999 11.1l7.7001 19.4c.1.2.1.4.1.6-.2.9-.9001 1.6-1.7 1.6zm-293.4-23.6c-12.8 0-23.2 10.4-23.2 23.2s10.4 23.2 23.2 23.2 23.2-10.4 23.2-23.2-10.4-23.2-23.2-23.2zm0 39.9c-9.1 0-16.5-7.4-16.5-16.6s7.4-16.6 16.5-16.6 16.5 7.4 16.5 16.6-7.4 16.6-16.5 16.6zm106.6-39.8c-12.8 0-22.3 10.4-22.3 23.2s9.8 23.2 23.1 23.2c7.2 0 12.7-2.5 16.4-5.5.3001-.3.3999-.7.2-1.1l-2.6001-3.7c-.1999-.4-.6999-.4-1.0999-.2-1.8 1.2-6.2 4.1-12.5 4.1-12.3 0-16.2-10.2-16.2-12.9 0-.4.3-.8.8-.8h32.8c1.6 0 3.1-1.1 3.2-3 .6-11.9-6.7001-23.3-21.8-23.3zm13.5 20.6h-27.9c-.4 0-.8-.4-.8-.8 0-4.2 4.6-13.6 15-13.6 12.2 0 15.2001 9.8 15.2001 12.9 0 .8-.7001 1.5-1.5001 1.5zm-199.6001-38.9H409.3c-1.7 0-3.1 1.4-3.1 3.1v59.8c0 .4.4.8.8.8h5.1c.4 0 .8-.4.8-.8v-14.9c0-.9.7-1.6 1.4999-1.6h15c12.8001 0 23.2001-10.4 23.2001-23.2s-10.4-23.2-23.2001-23.2zm0 39.8h-15c-.8999 0-1.4999-.7-1.4999-1.6v-30.1c0-.9.7-1.6 1.4999-1.6h15c9.2001 0 16.6001 7.4 16.6001 16.6s-7.5 16.7-16.6001 16.7zm38.4001-13.2c0 .4.3.6.6.6s.5-.1.6-.4c.9-2.7 3.2-8.3 10.2-8.3 1.5 0 3.3.4 4.9 1.4.2.1.3.4.3.6v5.6c0 .4-.3.8-.8.8-.2 0-.3-.1-.4-.1-1.3-.8-3.1-1.6-5.7-1.6-2.9 0-5.9 1.8-7.6 5.3-1.1 2.3-1.7 5.6-1.7 9.6v22.9c0 .4-.3.8-.8.8h-5.1c-.4 0-.8-.4-.8-.8v-42.7c0-.4.3-.8.8-.8h4.8c.4 0 .8.4.8.8l-.1 6.3zm78.3-6.5c0-.4-.3-.8-.8-.8h-4.8c-.4 0-.8.4-.8.8v60.6c0 .4.3.8.8.8h5.1c.4 0 .8-.4.8-.8v-3l-.3-21.3c0-.4.3-.6.6-.6.2 0 .4.1.6.4 2.5 4.1 8 8.5 17.1 8.5 11.4 0 21.8-10.1 21.8-23.2s-10.5-23.2-22-23.2c-8.6 0-14.2 4.4-16.9 8.8-.1.2-.3.4-.6.4s-.6-.2-.6-.6v-6.8zm16.8 38c-9.1 0-16.5-7.4-16.5-16.6s7.4-16.6 16.5-16.6 16.5 7.4 16.5 16.6-7.4 16.6-16.5 16.6zm89-31.5c0 .4.3.6.6.6s.5001-.1.5999-.4c.9001-2.7 3.2001-8.3 10.2002-8.3 1.4999 0 3.2999.4 4.8999 1.4.1999.1.3.4.3.6v5.6c0 .4-.3.8-.8.8-.2 0-.3-.1-.4-.1-1.3-.8-3.1-1.6-5.7-1.6-2.9001 0-5.9 1.8-7.6 5.3-1.1 2.3-1.7 5.6-1.7 9.6v22.9c0 .4-.3.8-.8.8h-5.1c-.4 0-.8001-.4-.8001-.8v-42.7c0-.4.3-.8.8001-.8h4.7999c.4001 0 .8001.4.8001.8l-.1 6.3zm24.6-20.4c0-.4.3-.8.8-.8h5c.4 0 .7999.4.7999.8v12.4c0 .4.3.8.8001.8h12.6c.4 0 .8.3.8.8v4.9c0 .4-.3.8-.8.8h-12.4c-.4001 0-.7999.4-.7999.8v24.1c0 5.1 2.0999 7.8 6.0999 7.8 3.2 0 5.2-1 6.7999-1.6.6001-.2 1.1001.2 1.1001.7v4.4c0 .4-.2.6-.5.8-1.1.5-3.7001 1.9-8 1.9-6.8 0-12.1-3.7-12.1-14.5l-.2-44.1zm48.2 51.2 1.4999 3.9-3.2999 9.5-20-50.3v-.3c0-.4.3-.8.7999-.8H709.2c.3 0 .6.2.7.5l9.3 23.4c1.6999 4.3 3.5999 10.4 3.7 11.1.1001.4.4001.6.7999.6s.7001-.3.8001-.6c.1-.6 2-6.8 3.8001-11.1l9.2999-23.5c.1-.3.4001-.5.7001-.5H743.8c.4 0 .8.4.8.8v.3l-24.0001 60.5c-.0998.3-.3999.5-.6999.5h-5.8c-.4001 0-.7999-.4-.7999-.8v-.3l9.5999-23 1.8.1zm-571.7-45.2-8.1-8.1 8.1-8.1c6.4-6.4 6.4-16.9 0-23.3l-28.5-28.5v-13.4c0-4.6-3.4-8.5-7.9-9.1-2.6-.3-5.2.4-7.2 2.2-1 .9-1.8 1.9-2.3 3.1l-17.2-17.2c-6.2-6.2-16.3-6.2-22.6 0l-63 63c-6.4 6.4-6.4 16.9 0 23.3l8.1 8.1-8.1 8.1c-6.4 6.4-6.4 16.8 0 23.3l23 22.9c2.9 2.9 6.8 4.8 10.9 5.1 4.8.3 9.3-1.4 12.7-4.8l22.8-22.8c2.8-2.8 7.4-2.8 10.2 0l22.7 22.7c3.4 3.4 7.9 5.1 12.6 4.8 4.1-.2 8-2.1 10.9-5.1l22.9-22.9c6.4-6.4 6.4-16.8 0-23.3zm-141.7-23.2c-2.6-2.6-2.6-6.7 0-9.2l62.2-62.2c2.8-2.8 7.4-2.8 10.2 0l62.2 62.2c2.6 2.6 2.6 6.7 0 9.2l-8.1 8.1-47.8-47.8c-6.2-6.2-16.3-6.2-22.6 0l-48 47.9-8.1-8.2zm119.5 15.1-7.9 7.9c-1.2 1.2-2.7 2-4.4 2.1-1.9.1-3.7-.6-5-1.9l-23.6-23.5c-6.2-6.2-16.3-6.2-22.6 0l-23.6 23.5c-1.2 1.2-2.9 1.9-4.6 1.9s-3.4-.7-4.6-1.9l-8.1-8.1 47.2-47.2c2.8-2.8 7.4-2.8 10.2 0l47 47.2zm15.1 24.4-23.1 23.1c-1.2 1.2-2.7 2-4.4 2.1-1.9.1-3.7-.6-5-1.9l-23.6-23.5c-6.2-6.2-16.3-6.2-22.6 0l-23.6 23.5c-1.3 1.3-3.1 2-5 1.9-1.7-.1-3.2-.9-4.4-2.1l-23-23.1c-2.6-2.6-2.6-6.7 0-9.2l8.1-8.1 7.8 7.8c2.9 2.9 6.8 4.8 10.9 5.1 4.8.3 9.3-1.4 12.7-4.8l22.8-22.8c2.8-2.8 7.4-2.8 10.2 0l22.7 22.8c3.4 3.4 7.9 5.1 12.6 4.8 4.1-.2 8-2.1 10.9-5.1l7.8-7.8 8.1 8.1c2.7 2.5 2.7 6.6.1 9.2z"/></svg>