<svg xmlns="http://www.w3.org/2000/svg" xml:space="preserve" style="enable-background:new 0 0 1368.3 242.4" viewBox="0 0 1368.3 242.4"><style>.st110{fill:#fff}</style><g id="Wordmark"><circle cx="217.5" cy="85.5" r="4.7" class="st110"/><path d="M221.7 106.3c0-.5-.4-1-1-1h-6.5c-.5 0-1 .4-1 1v54.2c0 .5.4 1 1 1h6.5c.5 0 1-.4 1-1v-54.2zM182.3 129.3c-6.5-.9-15.9-1.8-15.9-8.7 0-5.2 6.3-9 13.7-9 6.3 0 11.7 2.2 15.1 4.8.4.3 1.1.2 1.3-.2l3-5.1c.2-.4.2-.9-.2-1.2-4.7-4-12.3-6.1-19.3-6.1-14.6 0-22.1 8.7-22.1 17.1 0 9.8 8.7 13.9 19.2 15.7 7.5 1.3 17.1 2.7 17.1 9.5 0 5.6-6.9 9.2-15.1 9.2-8.3 0-14.2-3.6-17.1-5.6-.5-.3-1-.3-1.4.2l-3.4 5c-.2.4-.2.9.2 1.2 3.6 3.3 11.7 7.2 21.7 7.2 15.1 0 23.5-8.4 23.5-17.6.1-10.8-9.5-14.8-20.3-16.4zM290.5 105.4h-6c-.5 0-1 .4-1 1v8.5c0 .5-.4.7-.8.7-.3 0-.6-.2-.7-.5-3.4-5.6-10.5-11.2-21.5-11.2-14.7 0-27.9 12.9-27.9 29.5s13.3 29.5 27.9 29.5c11 0 18-5.6 21.5-11.2.2-.3.4-.5.7-.5.3 0 .8.2.8.7v8.5c0 .5.4 1 1 1h6c.5 0 1-.4 1-1v-54.2c0-.4-.5-.8-1-.8zm-28.4 49.1c-11.6 0-20.9-9.4-20.9-21.1 0-11.6 9.4-21.1 20.9-21.1s20.9 9.4 20.9 21.1c0 11.7-9.3 21.1-20.9 21.1zM151.1 160.2l-31.3-78.8c-.1-.4-.5-.6-.9-.6h-7.7c-.4 0-.8.3-.9.6L79 160.2c0 .1-.1.2-.1.4 0 .5.4 1 1 1h6.9c.4 0 .8-.3.9-.6l6.9-17.4c.3-.7 1-1.2 1.8-1.2h37.2c.8 0 1.5.5 1.8 1.2l6.9 17.4c.1.4.5.6.9.6h6.9c.5 0 1-.4 1-1 .1-.1 0-.3 0-.4zm-22.4-26.4h-27.3c-1.1 0-2-.9-2-2 0-.3 0-.5.1-.7l9.8-24.6c2.2-5.5 4.6-13.4 4.8-14.1.1-.4.5-.8 1-.8s.9.3 1 .8c.2.8 2.6 8.6 4.7 14.1l9.8 24.6c.1.2.1.5.1.7-.1 1.2-1 2-2 2zM429.2 104.2c-16.3 0-28.3 13.2-28.3 29.5s12.4 29.5 29.4 29.5c9.1 0 16.2-3.2 20.8-6.9.4-.3.5-.9.2-1.3l-3.3-4.7c-.3-.4-.9-.5-1.4-.2-2.3 1.5-7.8 5.2-15.9 5.2-15.6 0-20.6-12.9-20.6-16.3 0-.5.4-1 1-1h41.7c2 0 3.9-1.5 4-3.8.8-15.5-8.5-30-27.6-30zm17.1 26.2h-35.4c-.5 0-1-.4-1-1 0-5.3 5.8-17.3 19.1-17.3 15.4 0 19.3 12.4 19.3 16.3 0 1.2-.9 2-2 2zM379.1 139.1c-.3-.5-.4-1.9-.5-2.9 9.2-5 15.4-14.7 15.4-25.9 0-16.3-13.2-29.5-29.5-29.5h-25.6c-2.2 0-3.9 1.8-3.9 3.9v75.9c0 .5.4 1 1 1h6.5c.5 0 1-.4 1-1v-18.9c0-1.1.9-2 2-2h19.1c1.2 0 2.4-.1 3.6-.2.3.3.6.6.8 1 3.2 4.9 6 9.3 9 14l4.2 6.6c.2.3.5.5.8.5h8.7c.8 0 1.3-.9.8-1.5-4.4-7-10.3-16.1-13.4-21zm-33.7-7.8c-1.1 0-2-.9-2-2V91.2c0-1.1.9-2 2-2h19.1c11.6 0 21.1 9.4 21.1 21.1 0 11.6-9.4 21.1-21.1 21.1l-19.1-.1zM538.7 160.6v-80c0-.6.4-1 1-1h6.3c.6 0 1 .4 1 1v80c0 .6-.4 1-1 1h-6.3c-.6 0-1-.5-1-1zM523.6 105.5h-6c-.5 0-1 .4-1 1v8.5c0 .5-.4.7-.8.7-.3 0-.6-.2-.7-.5-3.4-5.6-10.5-11.2-21.4-11.2-14.7 0-27.9 12.9-27.9 29.5s13.3 29.5 27.9 29.5c11 0 18-5.6 21.4-11.2.2-.3.4-.5.7-.5.3 0 .8.2.8.7v8.5c0 .5.4 1 1 1h6c.5 0 1-.4 1-1v-54.2c0-.4-.5-.8-1-.8zm-28.4 49.2c-11.6 0-20.9-9.4-20.9-21.1 0-11.6 9.4-21.1 20.9-21.1s20.9 9.4 20.9 21.1c0 11.6-9.3 21.1-20.9 21.1zM673.1 129.6c-6.5-.9-15.9-1.8-15.9-8.7 0-5.2 6.3-9 13.7-9 6.3 0 11.7 2.2 15.1 4.8.4.3 1.1.2 1.3-.2l3-5.1c.2-.4.2-.9-.2-1.2-4.7-4-12.3-6.1-19.3-6.1-14.6 0-22.1 8.7-22.1 17.1 0 9.8 8.7 13.9 19.2 15.7 7.5 1.3 17.1 2.7 17.1 9.5 0 5.6-6.9 9.2-15.1 9.2-8.3 0-14.2-3.6-17.1-5.6-.5-.3-1-.3-1.4.2l-3.4 5c-.2.4-.2.9.2 1.2 3.6 3.3 11.7 7.2 21.7 7.2 15.1 0 23.5-8.4 23.5-17.6.1-10.9-9.5-14.9-20.3-16.4zM860.9 104.2c-16.3 0-28.3 13.2-28.3 29.5s12.4 29.5 29.4 29.5c9.1 0 16.2-3.2 20.8-6.9.4-.3.5-.9.2-1.3l-3.3-4.7c-.3-.4-.9-.5-1.4-.2-2.3 1.5-7.8 5.2-15.9 5.2-15.6 0-20.6-12.9-20.6-16.3 0-.5.4-1 1-1h41.7c2 0 3.9-1.5 4-3.8.8-15.5-8.4-30-27.6-30zm17.2 26.2h-35.4c-.5 0-1-.4-1-1 0-5.3 5.8-17.3 19.1-17.3 15.4 0 19.3 12.4 19.3 16.3-.1 1.2-.9 2-2 2zM789.7 105.5h-6c-.5 0-1 .4-1 1v8.5c0 .5-.4.7-.8.7-.3 0-.6-.2-.7-.5-3.4-5.6-10.5-11.2-21.4-11.2-14.7 0-27.9 12.9-27.9 29.5s13.3 29.5 27.9 29.5c11 0 18-5.6 21.4-11.2.2-.3.4-.5.7-.5.3 0 .8.2.8.7v8.5c0 .5.4 1 1 1h6c.5 0 1-.4 1-1v-54.2c0-.4-.4-.8-1-.8zm-28.3 49.2c-11.6 0-20.9-9.4-20.9-21.1 0-11.6 9.4-21.1 20.9-21.1 11.6 0 20.9 9.4 20.9 21.1 0 11.6-9.4 21.1-20.9 21.1zM641 153.1h-40.1c-1.1 0-2-.9-2-2v-24c0-1.1.9-2 2-2h32.8c.5 0 1-.4 1-1v-6.5c0-.5-.4-1-1-1h-32.8c-1.1 0-2-.9-2-2V91c0-1.1.9-2 2-2H641c.5 0 1-.4 1-1v-6.5c0-.5-.4-1-1-1h-46.5c-2.2 0-3.9 1.8-3.9 3.9V157.3c0 2.2 1.8 3.9 3.9 3.9H641c.5 0 1-.4 1-1v-6.5c0-.1-.5-.6-1-.6zM704.1 88.8c0-.5.4-1 1-1h6.3c.5 0 1 .4 1 1v15.8c0 .5.4 1 1 1h15.9c.5 0 1 .4 1 1v6.3c0 .5-.4 1-1 1h-15.8c-.5 0-1 .4-1 1v30.7c0 6.5 2.7 9.8 7.7 9.8 4 0 6.6-1.3 8.6-2 .8-.3 1.4.2 1.4.9v5.6c0 .5-.2.8-.6 1-1.4.7-4.7 2.3-10.2 2.3-8.7 0-15.4-4.7-15.4-18.4v-56zM804.8 88.8c0-.5.4-1 1-1h6.3c.5 0 1 .4 1 1v15.8c0 .5.4 1 1 1H830c.5 0 1 .4 1 1v6.3c0 .5-.4 1-1 1h-15.8c-.5 0-1 .4-1 1v30.7c0 6.5 2.7 9.8 7.7 9.8 4 0 6.6-1.3 8.6-2 .8-.3 1.4.2 1.4.9v5.6c0 .5-.2.8-.6 1-1.4.7-4.7 2.3-10.2 2.3-8.7 0-15.4-4.7-15.4-18.4v-56zM1041.5 106.5v54c0 .5-.4 1-1 1h-5.9c-.7 0-1-.4-1-1.7l-.2-4.8c0-.7-.9-1-1.4-.4-3.4 4.8-9.1 8.3-17.2 8.3-12.2 0-20.4-8-20.4-22.8v-33.5c0-.5.4-1 1-1h6.2c.5 0 1 .4 1 1v32.7c0 9.9 5.3 16 14.5 16 9.3 0 16.2-6.1 16.2-16v-32.7c0-.5.4-1 1-1h6.2c.6-.1 1 .4 1 .9zM950.9 163.1c22.6 0 32.8-12.6 32.8-24.3 0-12.4-9.3-19.8-28.4-22.5l-1.7-.2c-9.4-1.3-22.2-3-22.2-13.4 0-7.8 9.1-14 20.8-14 7.9 0 15.7 2.4 21.6 6.6.3.2.6.4 1 .3.6-.1.7-.6.7-.6l3.6-6s.3-.4.2-.8c0-.3-.3-.5-.5-.7-6.3-5-16.4-8.2-26.6-8.2-20.2 0-30.8 11.9-30.8 23.6 0 11.5 8.8 18.5 26.8 21.6l1.1.2c10.9 1.9 24.4 4.2 24.4 14.6 0 8.3-9.6 14.3-22.8 14.3-8.7 0-17-2.7-24.7-8l-.2-.1c-.2-.1-.8-.2-1.2.2l-.1.1-4.1 6.1s-.2.3-.2.6c0 .4.3.6.4.7 5.7 5.1 17 9.9 30.1 9.9z" class="st110"/><circle cx="925.5" cy="146.5" r=".9" class="st110"/><circle cx="921.4" cy="152.7" r=".9" class="st110"/><circle cx="978.4" cy="88.5" r=".9" class="st110"/><circle cx="974.6" cy="94.8" r=".9" class="st110"/><path d="M1055.6 160.6v-53.4c0-.9.7-1.6 1.6-1.6h4.6c1 0 1.7.7 1.7 1.7l.1 3.9c0 .7 1 1 1.4.4 2.9-4.2 7.5-7.3 14.6-7.3 7.2 0 12.8 3.2 15.8 9.5.3.6 1.1.6 1.4.1 3-5.4 8.1-9.6 16.9-9.6 11.5 0 18.5 7.5 18.5 22.3v34.1c0 .5-.4 1-1 1h-6.3c-.5 0-1-.4-1-1v-33.2c0-9.8-4-15.5-12.1-15.5-8.2 0-13.8 5.8-13.8 15.5v33.2c0 .5-.4 1-1 1h-6.3c-.5 0-1-.4-1-1v-33.2c0-9.8-4.6-15.5-12.7-15.5-8.3 0-13.3 5.8-13.3 15.5v33.2c0 .5-.4 1-1 1h-6.3c-.3-.1-.8-.6-.8-1.1zM1146.3 160.6v-53.4c0-.9.7-1.6 1.6-1.6h4.6c1 0 1.7.7 1.7 1.7l.1 3.9c0 .7 1 1 1.4.4 2.9-4.2 7.5-7.3 14.6-7.3 7.2 0 12.8 3.2 15.8 9.5.3.6 1.1.6 1.4.1 3-5.4 8.1-9.6 16.9-9.6 11.5 0 18.5 7.5 18.5 22.3v34.1c0 .5-.4 1-1 1h-6.3c-.5 0-1-.4-1-1v-33.2c0-9.8-4-15.5-12.1-15.5-8.2 0-13.8 5.8-13.8 15.5v33.2c0 .5-.4 1-1 1h-6.3c-.5 0-1-.4-1-1v-33.2c0-9.8-4.6-15.5-12.7-15.5-8.3 0-13.3 5.8-13.3 15.5v33.2c0 .5-.4 1-1 1h-6.3c-.3-.1-.8-.6-.8-1.1zM1260.5 88.8c0-.5.4-1 1-1h6.3c.5 0 1 .4 1 1v15.8c0 .5.4 1 1 1h15.9c.5 0 1 .4 1 1v6.3c0 .5-.4 1-1 1h-15.8c-.5 0-1 .4-1 1v30.7c0 6.5 2.7 9.8 7.7 9.8 4 0 6.6-1.3 8.6-2 .8-.3 1.4.2 1.4.9v5.6c0 .5-.2.8-.6 1-1.4.7-4.7 2.3-10.2 2.3-8.7 0-15.4-4.7-15.4-18.4v-56z" class="st110"/><circle cx="1241.7" cy="85.6" r="4.7" class="st110"/><path d="M1245.9 106.5c0-.5-.4-1-1-1h-6.5c-.5 0-1 .4-1 1v54.2c0 .5.4 1 1 1h6.5c.5 0 1-.4 1-1v-54.2z" class="st110"/></g></svg>
