<svg xmlns="http://www.w3.org/2000/svg" xmlns:xlink="http://www.w3.org/1999/xlink" width="89" height="40" viewBox="0 0 325.3042 148.811"><g fill="#fff"><path d="M6.475 141.004h1.762v6.094H6.475v-6.094zm2.955 0h1.642l2.142 3.372v-3.372h1.657v6.094h-1.657l-2.13-3.346v3.346H9.43v-6.094z"/><use xlink:href="#a"/><path d="M22.28 144.056c0-.996.258-1.77.776-2.324s1.238-.832 2.161-.832c.947 0 1.677.272 2.19.818s.767 1.307.767 2.288c0 .712-.111 1.296-.335 1.752s-.547.81-.97 1.064-.95.38-1.582.38c-.641 0-1.173-.11-1.593-.328s-.761-.565-1.022-1.04-.392-1.066-.392-1.778zm1.758.008c0 .615.106 1.057.32 1.326s.504.403.871.403c.378 0 .67-.131.877-.395s.31-.736.31-1.417c0-.574-.107-.993-.323-1.257s-.51-.398-.88-.398c-.354 0-.639.135-.853.403s-.322.714-.322 1.335z"/><use xlink:href="#b"/><use xlink:href="#c"/><use xlink:href="#d"/><use xlink:href="#e"/><use xlink:href="#b" x="19.8774"/><use xlink:href="#f"/><use xlink:href="#g"/><use xlink:href="#f" x="14.3334"/><use xlink:href="#c" x="40.3253"/><path d="M80.776 141.004h1.759v4.594h2.743v1.5h-4.501v-6.094zm7.79 0h4.71v1.302h-2.949v.968h2.736v1.243h-2.736v1.201h3.035v1.38h-4.797v-6.094z"/><use xlink:href="#h"/><use xlink:href="#d" x="59.9855"/><use xlink:href="#c" x="70.6613"/><use xlink:href="#d" x="70.6613"/><use xlink:href="#f" x="61.5451"/><path d="M121.784 145.419h1.689v1.393c0 .513-.1.917-.3 1.213s-.539.56-1.02.786l-.369-.74c.3-.15.507-.298.62-.447s.175-.324.188-.526h-.808v-1.679z"/><use xlink:href="#c" x="92.6751"/><use xlink:href="#g" x="70.2151"/><use xlink:href="#i"/><path d="M145.195 141.004h1.758v2.133h1.921v-2.133h1.766v6.094h-1.766v-2.465h-1.92v2.465h-1.759v-6.094Z"/><use xlink:href="#e" x="106.1649"/><use xlink:href="#d" x="114.8383"/><use xlink:href="#f" x="105.722"/><use xlink:href="#i" x="26.9772"/><use xlink:href="#d" x="132.2608"/><path d="M181.527 141.004h1.755v3.631c0 .36-.053.7-.158 1.02s-.269.6-.493.839-.458.408-.704.505c-.341.135-.752.203-1.23.203-.277 0-.58-.02-.906-.062s-.601-.124-.821-.247-.421-.298-.604-.525-.307-.462-.374-.703a3.87 3.87 0 0 1-.163-1.03v-3.63h1.754v3.717c0 .332.086.591.258.779s.41.28.716.28.54-.093.712-.276.258-.446.258-.783v-3.718z"/><use xlink:href="#g" x="121.455"/><use xlink:href="#f" x="135.7883"/><use xlink:href="#c" x="164.3508"/><use xlink:href="#a" x="188.8429"/><use xlink:href="#j"/><use xlink:href="#j" x="8.6734"/><use xlink:href="#f" x="171.4389"/><use xlink:href="#h" x="137.5506"/><use xlink:href="#e" x="191.8756"/><path d="M243.313 144.891v-1.268h2.717v2.598c-.52.38-.98.638-1.38.776s-.874.205-1.422.205c-.676 0-1.226-.123-1.652-.37s-.755-.613-.99-1.101-.35-1.048-.35-1.68c0-.665.128-1.243.384-1.735s.631-.865 1.125-1.12c.386-.197.904-.296 1.556-.296.63 0 1.1.061 1.411.183s.571.311.777.568.36.581.463.975l-1.696.324c-.07-.23-.188-.406-.355-.528s-.38-.183-.638-.183c-.386 0-.693.144-.922.43s-.343.74-.343 1.362c0 .659.115 1.13.347 1.413s.554.424.968.424c.197 0 .384-.031.563-.092s.383-.164.613-.311v-.574h-1.176zm3.693-3.887h1.641l2.143 3.372v-3.372h1.656v6.094h-1.656l-2.13-3.346v3.346h-1.654v-6.094z"/><use xlink:href="#e" x="210.5423"/><use xlink:href="#a" x="243.1598"/><use xlink:href="#k"/><path d="m274.027 145.082 1.673-.112c.037.291.11.513.221.665.181.247.44.37.776.37.251 0 .445-.063.58-.188s.204-.273.204-.44c0-.158-.064-.299-.194-.424s-.429-.242-.9-.353c-.77-.185-1.321-.432-1.65-.74s-.496-.7-.496-1.176a1.678 1.678 0 0 1 1.018-1.545c.34-.16.807-.238 1.4-.238.727 0 1.281.144 1.663.434s.608.75.68 1.382l-1.656.104c-.045-.274-.137-.474-.278-.599s-.336-.187-.584-.187c-.204 0-.359.047-.462.14s-.155.205-.155.338c0 .098.043.185.128.262s.28.156.59.225c.768.177 1.319.357 1.652.539s.574.406.724.675.228.57.228.902c0 .39-.101.75-.303 1.08s-.483.58-.846.751-.819.255-1.37.255c-.968 0-1.637-.2-2.01-.598s-.584-.907-.633-1.522z"/><use xlink:href="#e" x="234.4304"/><use xlink:href="#k" x="14.7755"/><path d="M291.674 141.004h2.922c.636 0 1.113.163 1.43.487s.475.785.475 1.384c0 .615-.172 1.096-.518 1.442s-.872.52-1.581.52h-.962v2.261h-1.766v-6.094zm1.766 2.598h.43c.34 0 .577-.063.714-.188s.206-.288.206-.485c0-.191-.06-.353-.178-.486s-.343-.2-.672-.2h-.5v1.36z"/><use xlink:href="#k" x="28.4341"/><use xlink:href="#l"/><use xlink:href="#e" x="263.1633"/><path d="M311.749 141.004h4.346v1.31h-2.58v1.064h2.204v1.23h-2.204v2.49h-1.766v-6.094Z"/><use xlink:href="#e" x="271.399"/><use xlink:href="#l" x="17.3507"/><path d="M211.258 85.053c-.752 0-1.248.158-1.476.482-.237.326-.35.99-.35 1.998 0 1.044-.17 2.359-.5 3.946-.265 1.236-.398 2.093-.398 2.551 0 .577.199.874.595.895s.701-.406.901-1.266c.441-1.992 1.068-3.348 1.877-4.066s2.11-1.08 3.905-1.08h8.81c.836 0 1.373.11 1.607.326.235.23.352.738.352 1.535l.03.866v32.995c0 1.863-.293 3.157-.887 3.879-.605.723-1.757 1.197-3.465 1.413-.728.095-1.094.31-1.094.652 0 .474.332.72 1 .72.224 0 .967-.071 2.23-.21l2.361-.094 2.6-.035 2.435.034 2.991.096 1.633.208c.625 0 .934-.245.934-.719 0-.37-.384-.622-1.16-.747-2.792-.491-4.246-2.03-4.353-4.63l-.031-1.305V90.871c0-1.04.123-1.696.378-1.962s.87-.397 1.841-.397h9.348c1.857 0 3.11.235 3.752.713.643.472 1.11 1.499 1.397 3.072.14.714.4 1.053.795 1.035.49-.043.72-.398.704-1.064l-.201-1.618c-.109-.598-.166-1.547-.166-2.844 0-1.308-.128-2.086-.385-2.357-.254-.263-.99-.396-2.208-.396h-35.802zm-30.665 21.459c-.277-.282-.413-.94-.413-1.99V90.987l-.039-1.095c0-1.145.253-1.926.754-2.36s1.403-.65 2.708-.65c3.513 0 6.402 1.041 8.666 3.116 2.27 2.081 3.4 4.732 3.4 7.96 0 2.776-.833 4.97-2.498 6.564-1.667 1.605-3.955 2.406-6.865 2.406h-3.76c-1.025 0-1.675-.14-1.953-.416m-.18-21.721-5.218.231c-1.18 0-2.166-.036-2.961-.102l-2.329-.13c-.752 0-1.128.226-1.128.68 0 .39.355.652 1.065.779l1.557.233c2.418.403 3.628 2.333 3.628 5.794l.064 3.462v23.903c0 3.757-.276 6.264-.829 7.54s-1.72 2.08-3.492 2.414c-.558.106-.834.324-.834.654 0 .455.276.674.834.674.331 0 .932-.044 1.793-.127a24.91 24.91 0 0 1 2.728-.163l1.725-.039 3.196.04 4.218.139 1.963.15c.773 0 1.14-.216 1.094-.648-.022-.407-.43-.654-1.226-.748-1.995-.2-3.468-.678-4.42-1.431-.712-.557-1.16-1.188-1.35-1.888-.188-.694-.279-2.004-.279-3.915l-.032-1.336v-10.405c0-.553.131-.906.391-1.064l.738-.137h4.421c1.191 0 2.057.456 2.59 1.367l.466.727 8.279 12.638c1.638 2.48 3.249 4.263 4.837 5.362 1.582 1.1 3.368 1.65 5.365 1.65 1.22 0 2.313-.141 3.277-.407s1.453-.58 1.48-.92c.02-.287-.171-.45-.567-.47l-1.06-.065c-2.396-.155-5.013-2.316-7.852-6.466l-1.061-1.591-9.175-13.53c5.477-2.727 8.212-6.586 8.212-11.578 0-3.792-1.296-6.651-3.889-8.57s-6.434-2.879-11.539-2.879a71.79 71.79 0 0 0-4.68.172M11.817 106.984c-.275-.28-.414-.94-.414-1.99V91.46l-.03-1.095c0-1.143.248-1.926.748-2.358.497-.438 1.402-.65 2.711-.65 3.513 0 6.397 1.04 8.66 3.115 2.268 2.08 3.403 4.732 3.403 7.959 0 2.776-.832 4.97-2.497 6.564-1.67 1.605-3.955 2.407-6.862 2.407h-3.77c-1.019 0-1.67-.141-1.949-.417m-.183-21.72-5.218.23a36.97 36.97 0 0 1-2.955-.101l-2.331-.13c-.752 0-1.13.226-1.13.68 0 .39.353.65 1.068.778l1.558.234c2.417.403 3.628 2.332 3.628 5.793l.065 3.463v23.903c0 3.757-.28 6.264-.833 7.54s-1.717 2.08-3.492 2.414c-.554.105-.831.323-.831.654 0 .454.277.673.83.673.334 0 .933-.043 1.799-.127a24.834 24.834 0 0 1 2.725-.162l1.727-.04 3.193.04 4.218.14 1.961.15c.782 0 1.144-.217 1.1-.648-.021-.407-.429-.654-1.23-.748-1.993-.2-3.468-.678-4.42-1.431-.706-.557-1.16-1.189-1.345-1.888-.192-.695-.284-2.004-.284-3.915l-.034-1.337v-10.404c0-.553.131-.906.401-1.065l.73-.137h4.42c1.195 0 2.061.457 2.593 1.367l.465.727 8.276 12.638c1.643 2.481 3.252 4.264 4.835 5.363s3.377 1.65 5.37 1.65c1.222 0 2.313-.142 3.275-.408s1.458-.579 1.48-.92c.022-.287-.163-.449-.566-.47l-1.06-.065c-2.397-.154-5.01-2.315-7.847-6.466l-1.065-1.59-9.175-13.53c5.477-2.727 8.214-6.586 8.214-11.578 0-3.793-1.297-6.651-3.89-8.57s-6.438-2.879-11.539-2.879c-1.35 0-2.91.055-4.686.172m85.278.014-6.175.354c-.907 0-2.062-.096-3.463-.294-.71-.107-1.275-.166-1.69-.166-.845 0-1.278.26-1.293.778-.03.413.258.643.86.687 2.214.241 3.602.977 4.155 2.207s.828 4.17.828 8.824v20.156c0 4.383-.312 7.416-.945 9.097-.633 1.69-1.81 2.656-3.54 2.929-.729.105-1.1.368-1.1.78 0 .43.292.644.865.644.402 0 1.03-.057 1.895-.161.668-.088 1.65-.134 2.957-.134l2.595-.038 2.359.075 3.458.061 2.227.14c.82 0 1.21-.288 1.166-.85-.022-.394-.369-.59-1.031-.59-.62 0-1.543-.163-2.761-.496-1.753-.444-2.743-2.009-2.994-4.7l-.094-2.784.029-3.228V90.827l.034-.964c0-.937.168-1.563.498-1.9.333-.333.942-.494 1.823-.494 3.872 0 7.07 1.096 9.589 3.295s3.78 4.984 3.78 8.342c0 2.908-.957 5.244-2.866 6.998-1.914 1.752-4.461 2.64-7.646 2.64-1.129 0-1.95-.084-2.45-.236a3.017 3.017 0 0 0-.663-.098c-.38 0-.593.131-.633.394-.044.346.512.67 1.677.973s2.444.456 3.836.456c2.973 0 5.787-.93 8.449-2.792 3.542-2.498 5.316-5.926 5.316-10.274 0-3.585-1.45-6.493-4.339-8.722s-6.653-3.343-11.285-3.343c-.886 0-2.026.061-3.428.177m33.761 36.032c-3.874-4.596-5.81-10.254-5.81-16.955 0-5.865 1.513-10.529 4.544-13.99 3.021-3.463 7.115-5.199 12.258-5.199 5.99 0 10.993 2.21 15.005 6.628 4.016 4.409 6.025 9.926 6.025 16.545 0 5.753-1.677 10.5-5.027 14.252-3.345 3.748-7.596 5.623-12.741 5.623-5.637 0-10.382-2.297-14.254-6.904m3.332-36.424c-3.192 1.254-5.832 2.938-7.913 5.068-1.971 2.014-3.539 4.523-4.7 7.52-1.165 3.002-1.747 6.032-1.747 9.084 0 7.043 2.21 12.738 6.625 17.072 4.428 4.343 10.218 6.519 17.377 6.519 6.977 0 12.708-2.277 17.182-6.813s6.721-10.351 6.721-17.44c0-6.688-2.224-12.17-6.667-16.457s-10.13-6.428-17.07-6.428c-3.348 0-6.618.622-9.808 1.875m-88.23 1.02c0 .413.32.618.964.618 2.019 0 3.374.543 4.077 1.638.694 1.105 1.042 3.244 1.042 6.417v28.129l-.031 2.17c0 2.664-.795 4.212-2.393 4.658l-1.266.368c-.575.149-.86.411-.86.78 0 .475.354.71 1.06.71.31 0 .888-.078 1.73-.233 1.593-.258 4.33-.393 8.204-.393 2.776 0 6.276.197 10.506.602a36.31 36.31 0 0 0 2.59.126c2.973 0 5.435-1.188 7.385-3.58 1.616-1.983 2.427-3.69 2.427-5.127 0-.599-.204-.887-.613-.86-.247.018-.499.217-.749.595-2.478 3.926-8.071 5.882-16.76 5.882-2.748 0-4.457-.237-5.129-.7-.68-.468-1.014-1.64-1.014-3.528v-12.25l-.035-1.107c0-.655.186-1.112.547-1.331s1.093-.333 2.174-.333h7.325c1.91 0 3.258.266 4.053.803.791.531 1.324 1.538 1.59 3.019l.2.928c.09.495.38.735.85.735.433 0 .649-.275.649-.828 0-.195-.023-.52-.07-.959a41.006 41.006 0 0 1-.197-4.014c0-1.77.097-3.73.294-5.863.03-.334.034-.578.034-.737 0-.578-.208-.873-.645-.895-.455-.023-.733.245-.849.797-.289 1.463-.61 2.4-.96 2.792-.36.4-1.132.725-2.332.97-1.347.263-3.188.403-5.516.403h-5.114c-.957 0-1.528-.11-1.716-.324s-.282-.824-.282-1.85V90.723c0-1.176.2-1.942.593-2.283.401-.345 1.285-.518 2.655-.518h5.216c3.423 0 5.781.164 7.067.497s2.13.993 2.555 1.996c.258.645.393 1.319.393 2.02v.872c0 .683.216 1.019.645.995.386-.022.633-.193.745-.518.116-.314.228-1.121.34-2.401l.135-1.945c.108-1.457.2-2.34.266-2.657.066-.306.1-.557.1-.76 0-.639-.366-.965-1.1-.965-.285 0-.729.052-1.327.134-.294.048-1.085.091-2.397.135l-4.717.235c-2.088.092-4.473.134-7.18.134-4.456 0-8.262-.174-11.438-.535-.923-.11-1.668-.163-2.224-.163-.999 0-1.497.303-1.497.913m89.337-55.04-6.175.354c-.908 0-2.062-.095-3.463-.294-.71-.107-1.275-.165-1.69-.165-.846 0-1.278.26-1.293.777-.03.413.259.643.86.687 2.214.24 3.602.977 4.155 2.207s.828 4.17.828 8.824v20.155c0 4.384-.312 7.417-.946 9.097-.632 1.69-1.81 2.657-3.539 2.93-.729.105-1.1.368-1.1.78 0 .43.292.644.864.644.402 0 1.032-.057 1.896-.161.668-.089 1.65-.133 2.957-.133l2.596-.038 2.358.075 3.459.06 2.227.14c.82 0 1.21-.287 1.165-.85-.021-.394-.37-.59-1.03-.59-.62 0-1.545-.163-2.763-.496-1.752-.442-2.741-2.009-2.993-4.699l-.094-2.785.029-3.227V36.417l.034-.964c0-.937.168-1.563.499-1.9.332-.333.941-.495 1.823-.495 3.871 0 7.069 1.097 9.588 3.297s3.78 4.983 3.78 8.34c0 2.91-.957 5.246-2.866 7-1.914 1.751-4.461 2.64-7.646 2.64-1.129 0-1.95-.085-2.451-.237a3.002 3.002 0 0 0-.661-.097c-.38 0-.593.13-.634.393-.044.346.512.67 1.678.973s2.443.457 3.836.457c2.973 0 5.786-.93 8.447-2.793 3.544-2.5 5.317-5.927 5.317-10.274 0-3.585-1.45-6.493-4.338-8.722s-6.654-3.343-11.287-3.343c-.885 0-2.025.062-3.427.177M46.498 52.863c-.281-.274-.417-.938-.417-1.983V37.338l-.036-1.095c0-1.14.255-1.919.748-2.353.5-.435 1.411-.655 2.722-.655 3.506 0 6.391 1.044 8.658 3.115 2.268 2.084 3.395 4.735 3.395 7.957 0 2.777-.832 4.97-2.498 6.573-1.663 1.596-3.95 2.397-6.862 2.397h-3.764c-1.021 0-1.674-.136-1.946-.415m-.182-21.722-5.223.233c-1.175 0-2.158-.032-2.956-.103l-2.328-.13c-.752 0-1.13.228-1.13.684 0 .39.355.65 1.062.775l1.562.237c2.416.399 3.627 2.333 3.627 5.795l.065 3.456v23.908c0 3.758-.278 6.264-.832 7.543-.552 1.272-1.718 2.075-3.49 2.405-.554.117-.835.331-.835.656 0 .455.281.683.836.683.331 0 .928-.048 1.793-.137l2.723-.161 1.732-.035 3.191.035 4.221.15 1.961.148c.777 0 1.141-.22 1.098-.648-.021-.418-.434-.662-1.234-.75-1.99-.198-3.465-.679-4.419-1.434-.707-.561-1.157-1.184-1.345-1.884s-.282-2.007-.282-3.923l-.031-1.326V56.91c0-.566.126-.911.395-1.073l.735-.127h4.42c1.201 0 2.061.447 2.592 1.357l.467.735 8.276 12.629c1.638 2.48 3.254 4.266 4.836 5.372 1.583 1.092 3.376 1.641 5.365 1.641 1.222 0 2.314-.14 3.28-.405.96-.274 1.454-.574 1.475-.916.024-.292-.16-.45-.565-.474l-1.061-.064c-2.391-.149-5.01-2.31-7.848-6.464l-1.064-1.596L58.214 54c5.471-2.726 8.21-6.587 8.21-11.574 0-3.8-1.297-6.658-3.887-8.57-2.594-1.923-6.436-2.882-11.54-2.882-1.349 0-2.911.057-4.681.166m58.278 44.8h-2.31V55.437h12.524V68.93h-2.31V57.748h-7.904V75.94zm-3.915.462h-2.31V52.56l-8.963-8.57v30.643h-2.31V38.58l13.583 12.992v24.831z"/><path d="M93.161 75.718h-2.31V53.24h-7.903v17.686h-2.31V50.929H93.16v24.789zm2.929 0h-2.31V62.002h13.412v13.07h-2.31v-10.76H96.09v11.406z"/><path d="M83.99 68.814c-3.875-4.602-5.809-10.256-5.809-16.957 0-5.868 1.517-10.532 4.539-13.992 3.03-3.463 7.118-5.196 12.258-5.196 5.991 0 10.997 2.206 15.008 6.623 4.017 4.414 6.024 9.923 6.024 16.546 0 5.753-1.674 10.503-5.028 14.256-1.327 1.486-2.794 2.677-4.403 3.574-2.45 1.366-5.227 2.05-8.335 2.05-5.632 0-10.387-2.3-14.255-6.904m3.335-36.425c-3.192 1.249-5.832 2.937-7.92 5.063-1.968 2.016-3.532 4.527-4.697 7.528s-1.749 6.024-1.749 9.083c0 7.037 2.216 12.727 6.635 17.075 4.42 4.337 10.214 6.51 17.365 6.51 6.982 0 12.715-2.267 17.188-6.811s6.716-10.353 6.716-17.441c0-6.689-2.227-12.17-6.666-16.458s-10.132-6.428-17.068-6.428c-3.347 0-6.615.626-9.804 1.88m-74.132-1.274-6.181.353c-.91 0-2.065-.096-3.458-.294-.712-.108-1.273-.166-1.693-.166-.845 0-1.28.26-1.296.779-.023.412.26.642.863.685 2.213.242 3.595.977 4.154 2.208s.834 4.17.834 8.825V63.66c0 4.383-.318 7.417-.948 9.098-.634 1.69-1.814 2.656-3.543 2.928-.733.106-1.1.368-1.1.781 0 .43.293.644.868.644.397 0 1.03-.056 1.896-.161.666-.088 1.649-.134 2.956-.134l2.59-.037 2.364.074 3.455.06 2.229.142c.818 0 1.207-.289 1.167-.85-.021-.395-.37-.59-1.034-.59-.62 0-1.541-.163-2.762-.497-1.75-.443-2.744-2.009-2.99-4.699l-.099-2.785.034-3.227V36.664l.033-.964c0-.937.165-1.563.499-1.9.33-.332.94-.495 1.821-.495 3.872 0 7.067 1.097 9.59 3.296 2.516 2.202 3.78 4.984 3.78 8.342 0 2.909-.957 5.246-2.87 6.999s-4.46 2.64-7.645 2.64c-1.126 0-1.944-.085-2.453-.237a2.981 2.981 0 0 0-.663-.098c-.373 0-.589.132-.63.394-.046.346.512.67 1.679.973 1.16.307 2.441.457 3.84.457 2.968 0 5.785-.93 8.442-2.793 3.544-2.499 5.32-5.926 5.32-10.274 0-3.585-1.452-6.493-4.335-8.722-2.894-2.225-6.656-3.342-11.29-3.342-.887 0-2.025.06-3.424.176m229.077.294c-.755 0-1.244.16-1.482.476-.228.324-.348.992-.348 2.007 0 1.038-.165 2.351-.497 3.945-.272 1.236-.4 2.076-.4 2.544 0 .576.2.88.597.902.403.016.698-.404.904-1.27.437-1.993 1.066-3.346 1.875-4.067.81-.725 2.108-1.086 3.908-1.086h8.807c.838 0 1.38.113 1.608.339.23.219.35.725.35 1.53l.032.871v32.994c0 1.858-.296 3.15-.897 3.874s-1.746 1.195-3.452 1.416c-.734.087-1.1.301-1.1.651 0 .476.33.713.997.713.222 0 .968-.068 2.231-.194.647-.07 1.436-.105 2.368-.105l2.597-.036 2.43.036 2.998.105 1.63.194c.628 0 .938-.237.938-.713 0-.376-.392-.62-1.162-.754-2.794-.49-4.25-2.027-4.357-4.623l-.033-1.306v-32.62c0-1.048.13-1.701.382-1.972.257-.264.872-.4 1.843-.4h9.343c1.867 0 3.11.24 3.755.72s1.108 1.495 1.4 3.07c.133.711.396 1.054.8 1.036.482-.048.716-.402.697-1.06L280.828 37c-.111-.596-.166-1.547-.166-2.844s-.123-2.087-.386-2.356c-.257-.266-.989-.39-2.21-.39H242.27zm-30.666 21.453c-.277-.274-.415-.938-.415-1.983V37.337l-.036-1.094c0-1.141.254-1.919.748-2.353.507-.435 1.41-.655 2.717-.655 3.513 0 6.398 1.044 8.667 3.116 2.262 2.083 3.395 4.735 3.395 7.956 0 2.776-.831 4.97-2.498 6.573-1.666 1.597-3.957 2.397-6.863 2.397h-3.766c-1.02 0-1.668-.135-1.95-.414m-.18-21.722-5.219.232c-1.175 0-2.157-.031-2.96-.102l-2.327-.13c-.751 0-1.13.228-1.13.683 0 .39.358.65 1.065.776l1.56.236c2.412.399 3.623 2.334 3.623 5.794l.07 3.458v23.907c0 3.758-.28 6.264-.836 7.543-.55 1.272-1.716 2.076-3.485 2.406-.557.116-.835.332-.835.656 0 .455.278.682.835.682.329 0 .926-.048 1.79-.137l2.729-.16 1.73-.036 3.188.036 4.222.148 1.96.149c.775 0 1.137-.22 1.098-.647-.02-.419-.43-.663-1.23-.75-1.994-.199-3.468-.68-4.418-1.435-.715-.561-1.158-1.184-1.35-1.883-.185-.697-.282-2.008-.282-3.924l-.032-1.326V56.91c0-.565.13-.91.398-1.073l.731-.126h4.419c1.2 0 2.066.447 2.595 1.357l.464.735 8.277 12.63c1.643 2.48 3.255 4.265 4.835 5.371 1.589 1.093 3.381 1.64 5.371 1.64 1.218 0 2.312-.14 3.277-.404.963-.274 1.453-.574 1.475-.916.022-.292-.16-.45-.566-.474l-1.061-.064c-2.39-.15-5.008-2.31-7.847-6.464l-1.06-1.596L223.324 54c5.47-2.726 8.208-6.587 8.208-11.574 0-3.8-1.296-6.658-3.891-8.569-2.595-1.923-6.433-2.883-11.534-2.883a76.7 76.7 0 0 0-4.685.166m71.3.534c0 .395.323.595.968.595 1.147 0 2.308.33 3.483.985s2.083 1.5 2.73 2.542l1.126 1.834 9.28 14.749c.776 1.223 1.262 2.164 1.46 2.826.197.67.302 1.708.302 3.134v9.917l-.04 1.434c0 2.375-.246 3.926-.744 4.646-.493.72-1.677 1.218-3.542 1.476-.73.11-1.09.382-1.09.817 0 .373.25.551.758.551.204 0 .626-.05 1.264-.149.562-.076 1.665-.112 3.305-.112l2.598-.067 2.63.132c1.066.07 1.877.126 2.431.196.912.11 1.494.167 1.73.167.78 0 1.17-.263 1.17-.783 0-.386-.344-.621-1.035-.68-1.993-.199-3.197-.593-3.623-1.167-.418-.583-.627-2.15-.627-4.728V56.076c0-1.006.42-2.096 1.263-3.294l.795-1.135 8.076-12.053 2.163-3.228c1.311-1.841 2.948-3.084 4.922-3.732.554-.176.83-.427.83-.771 0-.438-.301-.63-.896-.592l-1.77.173c-.619.066-2.065.09-4.335.09-2.463 0-4.017-.042-4.664-.145-.844-.12-1.43-.182-1.764-.182-.49 0-.74.188-.766.566s.247.63.793.766c2.793.66 4.194 1.74 4.194 3.221 0 .834-.774 2.483-2.32 4.945l-1.622 2.585-4.808 7.296-.336.504c-.221.309-.452.458-.69.458-.203 0-.402-.15-.603-.467l-.434-.66-6.988-10.992-.938-1.6c-.961-1.552-1.442-2.612-1.442-3.19 0-1.07.743-1.823 2.23-2.265.507-.155.762-.391.762-.717 0-.437-.316-.648-.961-.648-.197 0-.783.05-1.756.153-.906.096-2.984.144-6.236.144-1.573 0-3.074-.086-4.512-.253a13.227 13.227 0 0 0-1.69-.114c-.688 0-1.032.247-1.032.736m-124.469.11c0 .415.324.619.966.619 2.019 0 3.374.552 4.07 1.647s1.048 3.234 1.048 6.408v28.137l-.035 2.162c0 2.66-.794 4.22-2.39 4.656l-1.262.368c-.576.16-.865.413-.865.783 0 .475.349.717 1.058.717.315 0 .893-.08 1.733-.227 1.595-.276 4.332-.405 8.21-.405 2.77 0 6.274.203 10.505.599 1.081.083 1.95.129 2.593.129 2.969 0 5.43-1.192 7.378-3.575 1.62-1.986 2.426-3.7 2.426-5.134 0-.6-.205-.88-.612-.867-.247.022-.501.224-.75.605-2.477 3.918-8.066 5.886-16.763 5.886-2.743 0-4.455-.232-5.125-.71-.68-.46-1.013-1.638-1.013-3.525V57.804l-.035-1.095c0-.666.183-1.113.55-1.332s1.087-.333 2.172-.333h7.33c1.9 0 3.248.264 4.046.793s1.329 1.544 1.59 3.027l.199.932c.094.481.379.726.855.726.425 0 .64-.272.64-.824 0-.2-.025-.523-.06-.959-.139-1.328-.2-2.67-.2-4.018 0-1.763.095-3.717.294-5.863.027-.33.038-.58.038-.73 0-.578-.216-.877-.649-.893-.454-.026-.739.236-.848.793-.287 1.463-.614 2.393-.963 2.787-.357.404-1.136.733-2.326.97-1.357.27-3.194.398-5.518.398h-5.121c-.954 0-1.525-.103-1.717-.316-.184-.211-.277-.828-.277-1.855v-13.41c0-1.174.196-1.942.597-2.288.397-.34 1.281-.515 2.653-.515h5.21c3.432 0 5.787.163 7.065.502 1.286.332 2.137.994 2.554 1.994.268.643.4 1.323.4 2.024v.863c0 .69.213 1.028.644.998.386-.02.637-.19.745-.51.115-.325.224-1.126.342-2.404l.13-1.95c.111-1.458.2-2.343.27-2.649.062-.306.1-.566.1-.768 0-.635-.37-.96-1.098-.96-.29 0-.732.048-1.33.135-.29.044-1.088.091-2.395.134l-4.719.236c-2.085.085-4.475.13-7.183.13-4.447 0-8.263-.179-11.437-.538-.927-.1-1.673-.157-2.228-.157-.99 0-1.492.297-1.492.906M6.612 19.623c-.233-.13-.35-.336-.35-.615V1.23c0-.354.08-.615.238-.783s.414-.251.769-.251h5.814c1.714 0 3.223.41 4.528 1.23s1.957 2.376 1.957 4.668c0 1.603-.377 2.85-1.132 3.745s-1.603 1.496-2.544 1.803-1.784.462-2.53.462H9.924v6.904c0 .54-.494.81-1.481.81h-.699c-.522 0-.9-.065-1.132-.195zm6.443-10.678c.727 0 1.37-.21 1.929-.63s.838-1.159.838-2.221c0-1.025-.29-1.743-.866-2.153s-1.258-.614-2.041-.614H9.924v5.618h3.13zm7.659 10.063V9.839c0-1.248-.056-2.161-.168-2.739l-.168-1.062c0-.261.308-.462.923-.601s1.164-.21 1.649-.21c.298 0 .512.13.643.391s.228.536.293.825l.126.601c.857-1.398 1.891-2.096 3.103-2.096.577 0 .992.135 1.244.405s.377.583.377.936c0 .373-.075.811-.223 1.314s-.336.755-.56.755c-.093 0-.275-.042-.545-.126s-.545-.126-.824-.126c-.541 0-1.025.177-1.454.531s-.726.68-.894.979v9.392c0 .54-.503.81-1.51.81h-.53c-.989 0-1.482-.27-1.482-.81zm9.28-.978c-1.137-1.286-1.705-3.14-1.705-5.563 0-2.441.568-4.305 1.705-5.59s2.795-1.93 4.975-1.93c2.162 0 3.806.644 4.934 1.93s1.69 3.149 1.69 5.59-.563 4.3-1.69 5.577-2.772 1.914-4.934 1.914c-2.18 0-3.839-.643-4.975-1.928zm7.253-2.055c.494-.773.74-1.952.74-3.536 0-1.565-.246-2.735-.74-3.508s-1.262-1.16-2.306-1.16-1.816.387-2.32 1.16-.754 1.943-.754 3.508c0 1.584.251 2.763.754 3.536s1.277 1.16 2.32 1.16 1.812-.387 2.306-1.16zm6.15 9.378c-.233-.13-.35-.336-.35-.615V9.84c0-1.248-.055-2.161-.167-2.739l-.168-1.062c0-.261.308-.462.923-.601s1.155-.21 1.62-.21c.317 0 .54.13.671.391s.228.536.294.825l.126.601c.465-.652 1.038-1.164 1.719-1.537s1.43-.56 2.25-.56c1.062 0 1.994.304 2.795.909s1.42 1.477 1.86 2.614.656 2.47.656 3.997c0 2.33-.517 4.16-1.552 5.492s-2.455 2-4.262 2c-1.23 0-2.32-.355-3.27-1.063v5.842c0 .54-.495.81-1.482.81h-.531c-.522 0-.9-.065-1.133-.195zm8.623-12.83c0-1.528-.224-2.688-.67-3.48s-1.11-1.188-1.985-1.188c-.541 0-1.049.158-1.524.475s-.908.745-1.3 1.286v6.708a4.24 4.24 0 0 0 2.488.783c1.994 0 2.991-1.528 2.991-4.584zm6.597 5.52c-1.174-1.276-1.761-3.107-1.761-5.492 0-2.572.582-4.482 1.747-5.73s2.809-1.873 4.933-1.873c2.013 0 3.508.652 4.487 1.956s1.467 3.066 1.467 5.283c0 .206-.167.5-.503.88s-.587.574-.755.574h-7.714c.093 1.23.433 2.12 1.02 2.67s1.44.824 2.558.824c1.006 0 2.03-.26 3.074-.783.298-.13.485-.195.56-.195.241 0 .517.247.824.74s.461.872.461 1.133c0 .354-.27.68-.81.978s-1.207.53-1.999.699-1.533.251-2.222.251c-2.404 0-4.193-.638-5.367-1.914zm7.38-6.89c0-1.062-.21-1.891-.63-2.488s-1.039-.894-1.858-.894c-1.733 0-2.73 1.128-2.991 3.382h5.478zm4.947 7.855V9.839c0-1.248-.056-2.161-.168-2.739l-.168-1.062c0-.261.308-.462.923-.601s1.164-.21 1.649-.21c.297 0 .512.13.643.391s.228.536.293.825l.126.601c.857-1.398 1.891-2.096 3.103-2.096.577 0 .992.135 1.244.405s.377.583.377.936c0 .373-.075.811-.224 1.314s-.335.755-.559.755c-.093 0-.275-.042-.545-.126s-.545-.126-.824-.126c-.541 0-1.026.177-1.454.531s-.727.68-.894.979v9.392c0 .54-.504.81-1.51.81h-.531c-.988 0-1.481-.27-1.481-.81zm11.306-.084c-.717-.69-1.076-1.77-1.076-3.243V7.967h-.755c-.26 0-.452-.093-.572-.28s-.182-.494-.182-.922v-.42c0-.428.06-.736.182-.922s.311-.28.572-.28h.755l.364-2.74c.092-.54.521-.81 1.286-.81h.67c.801 0 1.202.27 1.202.81v2.74h1.705c.261 0 .452.094.574.28s.181.494.181.922v.42c0 .428-.06.736-.181.922s-.313.28-.574.28h-1.705v7.659c0 .559.098.95.294 1.173s.489.336.88.336c.186 0 .364-.018.531-.056s.298-.056.392-.056c.223 0 .41.238.559.713s.223.824.223 1.048c0 .783-.82 1.174-2.46 1.174-1.192 0-2.147-.345-2.865-1.034zm18.686-13.278c0 .112-.027.27-.083.476l-6.681 18.84c-.15.39-.643.587-1.482.587h-.447c-.466 0-.82-.052-1.062-.154s-.363-.238-.363-.406c0-.111.046-.27.14-.475l1.956-5.087L88.19 6.121c-.019-.056-.038-.126-.056-.21s-.028-.171-.028-.265c0-.372.513-.559 1.538-.559h.643c.82 0 1.295.177 1.425.531l2.069 6.01c.204.653.475 1.715.81 3.187h.084l.252-1.007.587-2.18 2.04-6.01c.13-.354.606-.53 1.426-.53h.475c.988 0 1.482.186 1.482.558zm16.1 3.76c.168.159.252.415.252.769v7.659c0 .801-.662 1.355-1.984 1.663s-2.805.461-4.445.461c-3.019 0-5.274-.81-6.764-2.432s-2.237-4.127-2.237-7.519c0-6.671 3.084-10.007 9.253-10.007.857 0 1.737.084 2.641.252s1.65.396 2.237.684.88.601.88.937c0 .224-.089.517-.265.88s-.387.685-.63.965-.456.419-.642.419c-.056 0-.285-.093-.685-.28s-.904-.353-1.51-.502-1.3-.224-2.082-.224c-1.883 0-3.257.569-4.123 1.705s-1.3 2.833-1.3 5.087c0 4.603 1.761 6.905 5.283 6.905.95 0 1.845-.084 2.683-.252v-4.277h-2.739c-.261 0-.452-.093-.573-.28s-.182-.493-.182-.922v-.726c0-.429.06-.736.182-.923s.312-.28.573-.28h5.395c.354 0 .615.08.783.238zm2.237 6.024V5.898c0-.28.116-.484.35-.615s.61-.196 1.131-.196h.531c.988 0 1.482.27 1.482.811v9.056c0 1.38.698 2.07 2.096 2.07.54 0 1.048-.169 1.523-.504s.862-.745 1.16-1.23V5.898c0-.54.494-.81 1.482-.81h.559c.988 0 1.482.27 1.482.81v9.225c0 1.267.055 2.194.167 2.78l.168 1.077c0 .26-.308.461-.923.6s-1.164.21-1.649.21c-.298 0-.512-.135-.643-.405s-.228-.563-.293-.88l-.126-.644c-.503.615-1.132 1.119-1.887 1.51s-1.542.587-2.362.587c-2.833 0-4.248-1.51-4.248-4.528zm13.948 3.578V9.839c0-1.248-.056-2.161-.168-2.739l-.168-1.062c0-.261.308-.462.923-.601s1.164-.21 1.65-.21c.297 0 .512.13.642.391s.228.536.294.825l.125.601c.858-1.398 1.892-2.096 3.103-2.096.577 0 .992.135 1.244.405s.378.583.378.936c0 .373-.075.811-.224 1.314s-.336.755-.56.755c-.093 0-.275-.042-.544-.126s-.545-.126-.825-.126c-.54 0-1.025.177-1.453.531s-.727.68-.895.979v9.392c0 .54-.503.81-1.51.81h-.53c-.988 0-1.482-.27-1.482-.81zm8.917-3.578V5.898c0-.28.116-.484.349-.615s.61-.196 1.132-.196h.531c.988 0 1.482.27 1.482.811v9.056c0 1.38.698 2.07 2.096 2.07.54 0 1.048-.169 1.523-.504s.862-.745 1.16-1.23V5.898c0-.54.494-.81 1.482-.81h.559c.988 0 1.482.27 1.482.81v9.225c0 1.267.055 2.194.167 2.78l.168 1.077c0 .26-.308.461-.923.6s-1.165.21-1.649.21c-.298 0-.513-.135-.643-.405s-.228-.563-.293-.88l-.126-.644c-.503.615-1.132 1.119-1.887 1.51s-1.542.587-2.362.587c-2.833 0-4.249-1.51-4.249-4.528z"/></g><defs><path id="a" d="M15.971 141.004h1.642l2.142 3.372v-3.372h1.657v6.094h-1.657l-2.13-3.346v3.346H15.97v-6.094Z"/><path id="b" d="M28.142 141.004h1.837l1.28 4.386 1.265-4.386h1.784l-2.112 6.094H30.29l-2.148-6.094Z"/><path id="c" d="M37.846 146.092h-1.995l-.278 1.006h-1.795l2.139-6.094h1.917l2.138 6.094h-1.841l-.285-1.006Zm-.364-1.317-.628-2.191-.621 2.19h1.249Z"/><path id="d" d="M39.504 141.004h5.344v1.505h-1.793v4.59h-1.758v-4.59h-1.793v-1.505Z"/><path id="e" d="M45.634 141.004h1.762v6.094h-1.762v-6.094Z"/><path id="f" d="M54.676 141.004h4.712v1.302h-2.95v.968h2.736v1.243h-2.736v1.201h3.035v1.38h-4.797v-6.094Z"/><path id="g" d="M62.934 147.098v-6.094h2.93c.544 0 .959.05 1.246.15s.519.284.695.555.264.599.264.987c0 .339-.067.63-.202.876s-.32.444-.556.596a2.04 2.04 0 0 1-.617.24c.21.076.362.15.458.225.064.05.158.157.281.321s.205.29.246.378l.851 1.766h-1.986l-.94-1.862c-.119-.241-.225-.397-.318-.47a.706.706 0 0 0-.43-.141H64.7v2.473h-1.766zm1.766-3.624h.741c.08 0 .236-.028.466-.083.117-.025.212-.09.285-.192s.11-.22.11-.353c0-.197-.057-.347-.174-.453s-.335-.158-.655-.158H64.7v1.239z"/><path id="h" d="m93.922 145.082 1.673-.112c.036.291.11.513.221.665.181.247.44.37.776.37.251 0 .445-.063.58-.188s.204-.273.204-.44c0-.158-.065-.299-.194-.424s-.43-.242-.9-.353c-.771-.185-1.32-.432-1.65-.74s-.496-.7-.496-1.176c0-.314.085-.609.254-.888s.424-.497.765-.657.806-.238 1.399-.238c.727 0 1.281.144 1.663.434s.608.75.68 1.382l-1.656.104c-.044-.274-.137-.474-.278-.599s-.336-.187-.584-.187c-.204 0-.358.047-.462.14s-.155.205-.155.338c0 .098.043.185.128.262s.28.156.59.225c.768.177 1.319.357 1.651.539s.575.406.726.675.227.57.227.902c0 .39-.1.75-.303 1.08s-.484.58-.846.751-.819.255-1.37.255c-.967 0-1.637-.2-2.01-.598s-.583-.907-.632-1.522z"/><path id="i" d="m142.873 144.604 1.54.5c-.103.462-.266.849-.489 1.159s-.498.544-.828.702-.75.237-1.26.237c-.618 0-1.123-.096-1.515-.288s-.73-.531-1.015-1.016-.427-1.105-.427-1.86c0-1.01.25-1.784.751-2.325s1.21-.813 2.125-.813c.717 0 1.28.156 1.69.466s.715.787.914 1.43l-1.552.37a1.477 1.477 0 0 0-.171-.407c-.098-.144-.219-.256-.361-.333s-.301-.116-.477-.116c-.399 0-.704.171-.916.514-.16.255-.24.655-.24 1.2 0 .676.095 1.139.286 1.39s.461.375.808.375c.336 0 .59-.101.762-.304s.297-.496.375-.88z"/><path id="j" d="M211.367 141.004h2.611c.515 0 .931.075 1.248.225s.58.364.786.644.357.605.45.977.14.765.14 1.18c0 .652-.07 1.157-.208 1.515s-.33.66-.576.903-.51.404-.792.484c-.385.11-.734.167-1.048.167h-2.611v-6.094zm1.758 1.38v3.33h.43c.368 0 .63-.044.784-.13s.277-.24.365-.458.132-.57.132-1.058c0-.646-.098-1.087-.295-1.326s-.522-.357-.978-.357h-.438z"/><path id="k" d="M271.73 146.092h-1.996l-.277 1.006h-1.795l2.138-6.094h1.918l2.137 6.094h-1.84l-.286-1.006Zm-.365-1.317-.628-2.191-.621 2.19h1.25Z"/><path id="l" d="m306.413 144.604 1.54.5c-.103.462-.266.849-.489 1.159s-.499.544-.828.702-.75.237-1.26.237c-.618 0-1.122-.096-1.515-.288s-.73-.531-1.015-1.016-.426-1.105-.426-1.86c0-1.01.25-1.784.75-2.325s1.21-.813 2.125-.813c.717 0 1.28.156 1.69.466s.715.787.914 1.43l-1.552.37a1.465 1.465 0 0 0-.171-.407c-.099-.144-.219-.256-.36-.333s-.302-.116-.478-.116c-.398 0-.704.171-.916.514-.16.255-.24.655-.24 1.2 0 .676.095 1.139.286 1.39s.46.375.808.375c.336 0 .59-.101.763-.304s.296-.496.374-.88z"/></defs></svg>
