<svg xmlns="http://www.w3.org/2000/svg" fill="none" viewBox="0 0 175 28"><g fill="#fff" clip-path="url(#a)"><path d="M11.248 0C5.038 0 0 4.525 0 10.099c0 0-.245 8.515 11.259 17.901 0 0 10.42-8.894 11.246-17.906C23.017 4.538 17.465-.003 11.248 0zm6.508 12.866-1.494-.807-.933 5.482s-.25.997-2.43.5l-.002-3.62-3.253.003v3.617c-2.18.5-2.43-.498-2.43-.498l-.938-5.484-1.493.807s-1.928.003-1.183-1.865l6.786-5.237s.807-.826 1.762 0l6.791 5.232c.75 1.87-1.183 1.87-1.183 1.87zm8.394-1.56V9.494h1.38V6.782h2.56v2.712h1.61v1.812h-1.61l.003 5.14c0 .398.053.648.155.745s.418.147.944.147a8.215 8.215 0 0 0 .508-.018v1.9l-1.226.044c-1.222.042-2.058-.166-2.508-.624-.292-.292-.436-.739-.436-1.346l-.003-5.988h-1.378zm14.33-1.852c.496.208.906.526 1.225.955.27.363.436.737.497 1.12s.092 1.01.092 1.882l.002 5.716h-2.645l-.003-5.922c0-.523-.089-.947-.27-1.268-.234-.452-.681-.678-1.336-.678-.679 0-1.194.226-1.546.676s-.526 1.092-.526 1.925l.002 5.27h-2.59l-.005-13.106h2.59l.003 4.64c.373-.565.807-.96 1.299-1.183a3.707 3.707 0 0 1 1.551-.335c.608-.005 1.162.1 1.66.308zm6.91-1.218h-2.627V5.89h2.626v2.346zM44.764 9.4h2.627l.002 9.725h-2.626L44.765 9.4zm13.119.551c.65.526.973 1.4.973 2.618l.002 6.55h-2.653l-.002-5.916c0-.51-.069-.905-.208-1.179-.252-.5-.733-.75-1.443-.75-.873 0-1.47.366-1.794 1.098-.168.386-.252.88-.252 1.48l.003 5.264h-2.59l-.003-9.706h2.508v1.417c.332-.5.645-.86.942-1.08.53-.393 1.204-.59 2.017-.59 1.017.005 1.85.268 2.5.794zm3.352-3.94h2.546l.002 7.095 3.266-3.67h3.22l-3.546 3.625 3.689 6.056h-3.15l-2.4-4.154-1.073 1.094v3.06h-2.546L61.235 6.01zM74.89 19.566a6.171 6.171 0 0 1-1.888-.313 4.281 4.281 0 0 1-1.536-.892 4.183 4.183 0 0 1-1.041-1.486c-.255-.594-.384-1.286-.384-2.078 0-.663.1-1.284.303-1.863a4.267 4.267 0 0 1 .907-1.512 4.33 4.33 0 0 1 1.514-1.023c.605-.25 1.312-.376 2.122-.376.82 0 1.536.123 2.143.376s1.112.589 1.514 1.012.705.929.9 1.513.294 1.205.294 1.87c0 .724-.113 1.376-.342 1.957a4.272 4.272 0 0 1-.978 1.503 4.3 4.3 0 0 1-1.535.97 5.562 5.562 0 0 1-1.993.342zm3.555-4.772a5.4 5.4 0 0 0-.203-1.502 3.376 3.376 0 0 0-.626-1.215 2.95 2.95 0 0 0-1.09-.813c-.445-.197-.992-.297-1.636-.297-.634 0-1.176.108-1.625.323a3.083 3.083 0 0 0-1.102.858 3.504 3.504 0 0 0-.626 1.223 5.06 5.06 0 0 0-.202 1.423c0 .56.079 1.076.234 1.547s.381.876.678 1.215.668.6 1.112.787.958.279 1.536.279c.634 0 1.175-.108 1.625-.324a3.045 3.045 0 0 0 1.102-.865c.284-.36.491-.768.625-1.223a5.17 5.17 0 0 0 .198-1.416zm2.463-3.654v-.873h1.557V8.834c0-.724.168-1.295.505-1.713s.91-.629 1.717-.629a6.553 6.553 0 0 1 1.01.071v.96a3.517 3.517 0 0 0-.729-.086c-.31 0-.552.05-.728.15a.924.924 0 0 0-.384.394 1.531 1.531 0 0 0-.15.55 6.04 6.04 0 0 0-.032.621v1.118h2.02v.873h-2.02l.003 8.179h-1.212l-.003-8.179-1.554-.002zm8.924 8.177h-2.558l-.005-12.99h2.558l.005 12.99zm5.12-10.752h-2.593V6.248h2.593v2.317zm-2.593 1.147h2.593l.002 9.604h-2.592l-.003-9.604zm11.096-.005h2.745l-3.528 9.607h-2.695l-3.51-9.605h2.87l2.041 7.085 2.077-7.087zm6.574-1.147h-2.593V6.242h2.593V8.56zm-2.593 1.147h2.593l.002 9.604h-2.592l-.003-9.604zm12.957.544c.642.521.963 1.381.963 2.586l.002 6.469h-2.621l-.003-5.843c0-.505-.068-.891-.205-1.162-.25-.495-.725-.74-1.425-.74-.862 0-1.451.363-1.772 1.084-.166.382-.25.87-.25 1.463l.003 5.198h-2.559l-.002-9.586h2.477v1.402c.326-.494.636-.85.928-1.065.523-.387 1.188-.582 1.993-.582 1.007-.002 1.83.258 2.471.776zm8.178-.563c.62.253 1.123.716 1.506 1.392V9.696h2.496l.002 9.113c0 1.239-.21 2.173-.636 2.801-.728 1.082-2.13 1.623-4.199 1.623-1.249 0-2.269-.239-3.061-.72s-1.228-1.203-1.312-2.16h2.782c.071.294.189.505.35.634.276.229.739.345 1.391.342.92 0 1.538-.303 1.848-.908.203-.386.305-1.039.305-1.957v-.615c-.244.41-.507.72-.789.926-.507.381-1.17.573-1.982.573-1.257 0-2.259-.431-3.011-1.3s-1.128-2.038-1.128-3.52c0-1.428.361-2.627 1.084-3.6s1.745-1.46 3.073-1.46c.489.002.915.073 1.281.22zm.873 6.887c.41-.444.615-1.15.615-2.12 0-.91-.195-1.604-.586-2.078s-.913-.713-1.567-.713c-.894 0-1.51.416-1.849 1.244-.179.442-.268.984-.268 1.631 0 .558.095 1.055.287 1.49.344.81.965 1.215 1.859 1.215a1.987 1.987 0 0 0 1.509-.669zm15.973-3.438a2.192 2.192 0 0 0-.368-.968c-.289-.387-.736-.581-1.341-.581-.862 0-1.454.42-1.772 1.26-.168.444-.253 1.036-.25 1.775 0 .703.084 1.268.253 1.697.305.8.88 1.197 1.727 1.197.6 0 1.025-.158 1.278-.476s.405-.729.457-1.234h2.611c-.06.763-.341 1.487-.844 2.168-.802 1.1-1.99 1.65-3.565 1.65s-2.735-.459-3.476-1.374-1.115-2.105-1.115-3.564c0-1.647.41-2.93 1.228-3.846s1.951-1.376 3.394-1.376c1.228 0 2.233.268 3.014.81s1.243 1.494 1.388 2.862h-2.619zm12.526 4.98c-.825 1.002-2.077 1.502-3.76 1.502s-2.934-.5-3.76-1.5-1.238-2.204-1.241-3.614c0-1.386.413-2.586 1.236-3.601s2.077-1.523 3.76-1.526 2.935.508 3.76 1.52 1.239 2.215 1.239 3.602c.005 1.41-.408 2.614-1.234 3.617zm-2.045-1.39c.399-.523.599-1.264.599-2.225s-.2-1.702-.602-2.22-.975-.779-1.722-.779-1.323.26-1.728.78-.604 1.26-.604 2.222.202 1.705.607 2.225.981.784 1.728.782 1.322-.26 1.722-.784zm17.314-7.012c.418.163.799.452 1.139.863.276.334.46.747.557 1.233.061.324.089.797.089 1.418l-.015 6.053h-2.619l-.003-6.116c0-.363-.06-.663-.179-.9-.228-.447-.646-.668-1.256-.668-.705 0-1.194.29-1.462.866-.137.305-.205.673-.205 1.102l.002 5.719h-2.574l-.003-5.719c0-.57-.06-.984-.178-1.242-.216-.463-.637-.697-1.265-.694-.731 0-1.22.231-1.473.697-.136.266-.205.658-.205 1.181l.003 5.78h-2.593l-.002-9.586h2.485v1.402c.315-.5.615-.855.896-1.066.497-.376 1.139-.565 1.93-.565.747 0 1.352.16 1.812.484.371.3.652.684.844 1.155.334-.563.749-.979 1.246-1.245a3.844 3.844 0 0 1 1.759-.397c.426 0 .852.082 1.27.245zm-38.541 7.973c0-1.094.762-1.886 1.856-1.886s1.838.77 1.838 1.886c0 1.073-.741 1.865-1.856 1.865-1.073 0-1.835-.789-1.838-1.865z"/></g><defs><clipPath id="a"><path fill="#fff" d="M0 0h175v28H0z"/></clipPath></defs></svg>